<svg preserveAspectRatio="none" width="100%" height="100%" overflow="visible" style="display: block;" viewBox="0 0 97 97" fill="none" xmlns="http://www.w3.org/2000/svg">
<g id="svg11404437287" clip-path="url(#clip0_103_125)">
<g id="Vector">
</g>
<path id="Vector_2" d="M74.019 40.308C74.088 40.301 74.156 40.295 74.224 40.297C74.385 40.299 74.501 40.334 74.613 40.461C75.008 40.909 74.629 42.493 74.549 43.056C74.284 44.921 74.042 46.834 73.602 48.667C73.289 49.948 72.956 51.223 72.603 52.494C72.38 53.31 72.13 54.127 71.958 54.956C71.753 55.942 71.69 56.978 71.636 57.982C71.602 58.625 71.536 60.409 71.96 60.88C72.032 60.912 72.088 60.935 72.17 60.922C72.647 60.846 73.359 60.09 73.498 59.642C73.644 59.174 73.616 58.628 73.663 58.14C73.759 57.125 74.125 55.295 74.779 54.52C74.975 54.288 75.239 54.106 75.55 54.084C75.813 54.065 76.114 54.159 76.306 54.343C77.141 55.141 75.858 57.57 75.498 58.431C75.403 58.66 75.202 59.046 75.237 59.294C75.255 59.426 75.285 59.44 75.384 59.517C75.483 59.535 75.563 59.537 75.661 59.516C77.368 59.156 79.368 55.079 80.353 53.658C80.614 53.283 80.957 52.796 81.444 52.73C81.622 52.706 81.803 52.747 81.938 52.868C82.482 53.358 82.054 55.773 82.08 56.515L82.084 56.595C82.162 56.728 82.248 56.868 82.371 56.964C82.896 57.374 83.773 57.267 84.349 57.034C85.108 56.727 85.764 56.074 86.441 55.613C87.639 54.798 91.305 52.703 92.655 52.546C93.029 52.503 93.603 52.488 93.9 52.744C94.056 52.879 94.129 53.078 94.129 53.281C94.129 53.557 93.999 53.856 93.8 54.047C93.742 54.103 93.686 54.131 93.609 54.155C92.566 54.471 91.539 54.717 90.515 55.106C89.534 55.479 88.632 55.908 87.726 56.44C87.123 56.795 86.529 57.176 85.95 57.568C85.067 58.166 83.972 59.145 82.839 59.091C82.281 59.066 81.757 58.815 81.388 58.396C80.659 57.558 80.86 56.225 80.929 55.217L80.878 55.177C80.411 55.379 79.139 58.083 78.758 58.7C78.423 59.24 78.05 59.768 77.563 60.183C76.653 60.957 75.759 61.05 74.609 60.958C73.941 61.382 73.418 61.989 72.631 62.217C70.364 62.875 70.406 60.298 69.996 60.076C69.539 60.522 69.287 61.396 69.011 61.98C68.739 62.555 68.445 63.146 68.06 63.653C67.786 64.015 67.424 64.366 66.951 64.417C66.37 64.48 66.003 64.097 65.595 63.749C65.069 64.222 64.664 64.736 63.929 64.892C63.569 64.969 63.196 64.921 62.893 64.703C62.354 64.316 62.226 63.676 62.111 63.068C61.764 63.598 60.088 66.267 59.698 66.514C59.529 66.62 59.301 66.661 59.108 66.608C58.913 66.554 58.752 66.392 58.659 66.217C58.408 65.738 58.764 65.069 58.912 64.596C58.072 65.204 57.661 66.543 56.647 66.88C56.145 67.047 55.74 66.829 55.306 66.603C54.827 67.015 54.447 67.657 53.881 67.946C53.5 68.14 53.197 68.074 52.814 67.945C52.586 68.232 52.389 68.546 52.171 68.841C51.87 69.247 51.427 69.773 50.895 69.833C50.694 69.856 50.524 69.782 50.37 69.656C49.653 69.066 49.846 67.364 49.956 66.551C50.012 66.141 50.151 65.601 50.088 65.196C50.059 65.006 49.916 64.84 49.761 64.735C49.636 64.649 49.513 64.611 49.361 64.649C49.216 64.686 49.085 64.829 48.998 64.943C48.719 65.303 48.514 65.758 48.28 66.152C47.858 66.873 47.412 67.58 46.944 68.272C46.502 68.909 46.003 69.618 45.34 70.042C44.522 70.567 43.708 70.506 42.808 70.311C42.45 70.674 42.224 71.153 41.899 71.544C41.491 72.036 40.845 72.49 40.193 72.535C39.77 72.564 39.365 72.413 39.055 72.127C38.169 71.309 37.84 69.142 37.783 68C37.571 63.751 39.666 58.656 41.536 54.914C41.928 54.13 42.401 52.97 43.005 52.337C43.157 52.178 43.38 52.004 43.615 52.028C43.816 52.048 43.988 52.214 44.089 52.377C44.295 52.707 44.289 53.161 44.254 53.538C44.164 54.502 43.833 55.457 43.566 56.384C42.775 59.132 41.883 61.914 40.661 64.504C40.523 64.796 40.386 65.102 40.212 65.375C39.884 65.888 39.376 66.391 39.233 66.993C39.014 67.911 39.056 69.812 39.599 70.617C39.706 70.775 39.853 70.906 40.047 70.936C40.34 70.981 40.619 70.842 40.843 70.665C41.09 70.469 41.308 70.211 41.497 69.96C42.203 69.018 41.443 68.678 41.58 67.721C41.777 66.342 42.702 64.301 43.848 63.481C44.354 63.119 44.704 63.228 45.284 63.321C46.436 62.786 47.276 61.66 48.436 61.162C49.757 60.595 49.56 62.566 50.552 62.907C50.667 62.947 50.828 62.977 50.945 62.922C51.076 62.86 53.344 59.215 53.681 58.779C53.779 58.653 53.907 58.497 54.066 58.447C54.19 58.407 54.234 58.433 54.342 58.486C54.666 58.879 54.594 59.492 54.446 59.941C54.287 60.425 53.939 60.905 53.685 61.348C53.014 62.518 52.243 63.749 51.778 65.016C51.467 65.861 51.379 66.813 51.392 67.707C52.784 66.351 52.737 64.286 54.041 63.002C54.41 62.638 54.907 62.351 55.442 62.374C55.714 62.386 55.981 62.502 56.158 62.712C56.603 63.242 56.438 63.953 56.425 64.576C56.423 64.698 56.416 64.772 56.504 64.863C56.876 64.771 58.545 62.587 58.831 62.177C59.197 61.653 59.55 60.95 59.999 60.51C60.099 60.412 60.146 60.407 60.283 60.403C60.41 60.459 60.491 60.512 60.582 60.62C60.937 61.038 60.909 61.453 60.865 61.964C61.385 61.481 61.779 60.84 62.334 60.4C62.61 60.362 62.895 60.337 63.159 60.445C63.477 60.573 63.607 60.814 63.737 61.113C63.61 61.676 63.412 62.452 63.697 62.99C63.752 63.094 63.846 63.202 63.965 63.226C64.903 63.42 65.948 60.134 66.209 59.466C66.403 58.971 66.617 58.483 66.85 58.005C67.39 56.914 68.044 55.789 69.054 55.072C69.348 55.223 69.658 55.414 69.987 55.455C70.214 55.355 70.306 54.946 70.371 54.712C70.82 53.109 71.033 51.412 71.417 49.788C71.789 48.214 72.337 46.692 72.665 45.104C72.895 43.993 72.946 42.563 73.271 41.535C73.416 41.071 73.673 40.649 74.019 40.308Z" fill="var(--fill-0, #2A315F)"/>
<path id="Vector_3" d="M43.786 65.631C43.83 65.675 43.834 65.663 43.837 65.72C43.859 66.084 43.369 67.077 43.134 67.361L43.083 67.293C43.156 66.737 43.495 66.104 43.786 65.631ZM41.762 57.536C41.788 57.563 41.792 57.561 41.803 57.601C41.966 58.182 39.872 63.249 39.479 63.855L39.449 63.828C39.429 63.509 40.664 60.069 40.882 59.521C41.15 58.848 41.444 58.186 41.762 57.536ZM69.085 57.244C69.159 57.311 69.183 57.354 69.197 57.452C69.352 58.475 67.647 61.51 67.061 62.353C67.002 62.365 67.036 62.365 66.96 62.333C67.067 61.125 68.257 58.103 69.085 57.244ZM47.964 62.741C48.092 62.789 48.175 62.814 48.254 62.934C48.283 63.317 48.105 63.704 47.942 64.042C47.382 65.203 45.704 67.984 44.775 68.75C44.634 68.865 44.487 68.926 44.317 68.985C44.19 68.957 44.099 68.93 43.984 68.865L43.974 68.776C44.154 68.295 44.486 67.857 44.7 67.381C45.054 66.596 45.26 65.649 45.742 64.945C46.055 64.489 46.489 64.104 46.88 63.715C47.222 63.375 47.555 63 47.964 62.741Z" fill="var(--fill-0, white)"/>
<path id="Vector_4" d="M23.56 11.519C24.142 11.467 24.714 11.485 25.243 11.763C28.24 13.341 28.918 23.973 29.009 27.112C29.035 28.018 28.968 28.933 28.951 29.839C28.933 30.776 28.969 31.711 28.908 32.647C28.849 33.56 28.062 39.292 28.197 39.741L28.277 39.777C28.5 39.707 30.442 38.18 30.886 37.882C31.428 37.519 32.151 37.276 32.578 36.78C32.877 36.433 32.958 35.936 33.103 35.512C33.3 34.93 33.788 34.106 34.345 33.822C35.669 33.149 36.29 35.454 36.546 35.507C36.888 35.578 37.392 35.1 37.666 34.922C38.817 34.177 39.954 33.452 40.967 32.52C42.003 31.567 42.838 30.38 44.06 29.641C44.403 29.434 44.926 29.157 45.333 29.274C45.512 29.326 45.631 29.456 45.711 29.618C46.384 30.975 42.657 32.471 42.336 33.628C42.135 34.35 42.376 35.178 42.742 35.812C42.842 35.986 42.961 36.144 43.165 36.195C43.839 36.364 46.531 35.329 47.164 34.974C47.641 33.992 47.985 29.928 48.176 28.54C48.578 25.627 49.171 22.441 50.327 19.726C51.058 18.01 52.118 16.221 53.939 15.502C54.549 15.262 55.249 15.149 55.864 15.436C56.519 15.742 56.949 16.386 57.198 17.042C57.693 18.342 57.482 19.499 57.182 20.815C56.727 22.814 56.002 24.506 54.967 26.266C54.531 27.007 53.799 27.912 53.473 28.655C53.465 28.672 53.458 28.689 53.451 28.706C54.793 29.96 54.398 30.609 54.069 32.148C54.042 32.271 53.994 32.37 54.053 32.485C54.068 32.487 54.082 32.49 54.097 32.49C54.426 32.472 55.026 31.814 55.252 31.591C56.014 30.839 56.863 30.03 57.416 29.109C58.233 27.746 58.677 26.102 59.225 24.615C60.267 21.786 63.082 14.287 65.197 12.515C65.392 12.351 65.663 12.149 65.935 12.203C66.07 12.229 66.18 12.316 66.253 12.43C66.853 13.36 65.275 17.419 64.826 18.44C64.507 19.165 64.136 19.875 63.79 20.588C62.931 22.36 62.035 24.128 61.042 25.829C60.437 26.865 59.614 27.792 59.073 28.864C58.521 29.958 57.96 31.831 57.652 33.038C57.667 33.029 57.681 33.02 57.695 33.011C57.718 32.996 57.741 32.98 57.764 32.965C58.672 32.365 59.247 31.276 60.175 30.673C60.418 30.514 60.704 30.407 60.996 30.479C62.023 30.731 61.562 32.367 62.077 33.168C62.447 33.744 63.225 34.007 63.867 34.139C66.335 34.647 70.993 33.508 73.063 32.123C74.174 31.38 75.699 30.111 75.978 28.732C75.696 28.54 75.453 28.408 75.351 28.061C75.305 27.905 75.321 27.74 75.418 27.606C75.538 27.441 75.743 27.351 75.941 27.33C76.272 27.295 76.618 27.431 76.863 27.651C77.143 27.904 77.257 28.252 77.268 28.622C77.307 29.855 76.124 31.009 75.35 31.862C74.846 32.417 74.316 32.935 73.702 33.367C71.563 34.873 68.514 35.68 65.907 35.798C64.428 35.865 62.315 35.726 61.174 34.639C60.514 34.009 60.466 33.214 60.434 32.364C59.361 32.916 58.598 34.053 57.852 34.959C57.562 35.312 56.884 36.167 56.375 36.14C56.248 36.133 56.182 36.076 56.111 35.977C55.734 35.448 56.388 33.132 56.495 32.455C56.019 32.929 55.622 33.429 55.014 33.751C54.505 34.02 53.863 34.059 53.412 34.434C52.481 35.209 51.98 36.638 50.729 37.015C50.49 37.088 50.221 37.099 50 36.964C49.686 36.772 49.677 36.152 49.57 35.83C49.534 35.721 49.494 35.671 49.396 35.618C49.041 35.782 48.86 36.62 48.768 36.979C48.419 38.333 48.24 39.754 47.993 41.131C47.647 43.123 47.166 45.089 46.554 47.016C46.273 47.883 45.975 48.828 45.417 49.561C45.18 49.872 44.695 50.311 44.289 50.349C44.112 50.365 43.955 50.295 43.826 50.179C43.435 49.828 43.274 49.151 43.252 48.639C43.162 46.537 44.809 42.08 45.508 40.07C45.748 39.378 46.331 38.096 46.241 37.379C46.23 37.295 46.206 37.263 46.13 37.218C45.814 37.03 45.203 37.236 44.878 37.354C43.015 38.031 43.181 38.029 42.372 39.755C41.919 40.722 41.192 41.596 40.162 41.965C39.77 42.106 39.261 42.244 38.871 42.041C38.67 41.937 38.515 41.767 38.451 41.547C38.362 41.237 38.412 40.847 38.483 40.534C38.962 38.418 41.096 38.177 41.499 37.322C41.895 36.482 41.281 35.144 40.985 34.354L40.932 34.38C40.283 34.704 39.7 35.223 39.088 35.62C38.647 35.907 36.546 37.103 36.359 37.387C36.117 37.752 36.096 38.366 35.966 38.791C35.829 39.243 35.648 39.681 35.427 40.099C35.02 40.872 34.233 42.303 33.314 42.555C32.971 42.649 32.517 42.604 32.207 42.429C31.556 42.061 31.353 41.044 31.372 40.35C31.379 40.071 31.456 39.665 31.371 39.401C31.346 39.322 31.302 39.325 31.234 39.292C31.098 39.308 31.002 39.339 30.885 39.41C30.29 39.775 28.299 41.352 28.032 41.981C27.7 42.763 27.458 45.118 27.271 46.062C26.927 47.808 26.494 49.528 26.116 51.265C25.843 52.522 25.625 53.79 25.358 55.048C25.03 56.598 24.622 58.135 24.27 59.68L22.633 66.599C22.421 67.465 22.241 68.339 22.013 69.201C21.666 70.508 21.225 71.789 20.877 73.095C20.581 74.209 20.434 75.348 20.206 76.477C20.003 77.486 19.72 78.486 19.556 79.502C19.437 80.238 19.011 83.639 19.313 84.158C19.369 84.188 19.405 84.227 19.471 84.21C19.976 84.09 20.928 82.281 21.225 81.773C22.945 78.809 25.353 75.207 26.109 71.85C25.699 72.184 24.816 73.051 24.278 73.017C24.164 73.01 24.066 72.948 24.006 72.853C23.927 72.727 23.903 72.565 23.938 72.422C24.146 71.572 25.73 70.87 26.418 70.402C26.662 70.235 26.884 70.037 27.091 69.827C27.492 69.42 27.975 68.376 28.281 67.835C29.077 66.446 29.808 65.021 30.473 63.565C32.209 59.801 33.691 55.596 36.14 52.239C36.469 51.788 36.843 51.214 37.35 50.947C37.499 50.869 37.677 50.82 37.839 50.89C38.511 51.184 38.268 52.455 38.191 53.013C37.912 55.117 37.566 57.212 37.155 59.294C36.903 60.633 36.611 61.963 36.381 63.306C35.849 66.422 35.459 69.56 35.214 72.711C35.106 74.03 34.845 75.434 35.028 76.753C35.107 77.325 35.419 77.666 35.618 78.172C35.737 78.473 35.717 78.858 35.589 79.154C35.507 79.344 35.365 79.505 35.164 79.574C34.962 79.642 34.734 79.607 34.55 79.503C34.183 79.293 34.007 78.858 33.91 78.467C33.566 77.071 33.802 73.511 33.976 72.017C34.052 71.367 34.482 68.598 34.324 68.219C34.279 68.11 34.228 68.089 34.129 68.047C33.852 68.059 33.584 68.145 33.326 68.241C32.614 68.506 31.93 68.862 31.233 69.166C30.335 69.557 29.332 69.915 28.488 70.405C28.334 70.494 28.195 70.605 28.084 70.745C27.758 71.157 27.159 72.855 26.882 73.461C25.746 75.955 24.545 78.418 23.278 80.848C22.728 81.914 22.21 83.052 21.557 84.057C21.261 84.512 20.924 84.933 20.512 85.288C20.116 85.631 19.6 85.988 19.051 85.933C18.69 85.897 18.344 85.682 18.119 85.402C17.905 85.137 17.797 84.811 17.749 84.478C17.474 82.591 18.255 78.392 18.703 76.452C18.907 75.571 19.18 74.712 19.395 73.836C19.766 72.321 20.09 70.8 20.492 69.292C20.867 67.887 21.319 66.501 21.67 65.089C22.355 62.24 23 59.382 23.605 56.515C24.179 53.916 24.788 51.334 25.32 48.725C25.525 47.733 25.741 46.744 25.968 45.757C26.086 45.244 26.269 44.695 26.308 44.173C26.318 44.031 26.315 43.926 26.223 43.815C25.769 43.802 24.892 45.08 24.599 45.452C23.355 47.03 22.134 48.655 21.018 50.326C20.313 51.382 19.67 52.482 19.003 53.563C18.468 54.43 17.907 55.281 17.365 56.143C16.236 57.943 15.17 59.802 13.89 61.5C13.081 62.573 12.107 63.675 10.984 64.421C9.922 65.127 8.446 65.567 7.177 65.3C6.182 65.089 5.443 64.536 4.895 63.689C3.99 62.289 3.186 60.461 2.948 58.81C2.567 56.177 3.642 51.467 4.224 48.838C4.808 46.204 5.666 43.713 6.701 41.227C6.88 40.796 6.979 40.108 7.406 39.859C7.578 39.76 7.784 39.731 7.973 39.798C8.18 39.871 8.314 40.044 8.4 40.239C8.698 40.91 7.849 42.329 7.587 42.987C6.92 44.662 6.197 46.365 5.664 48.087C5.282 49.318 5.016 50.608 4.751 51.87C4.547 52.844 4.309 53.828 4.203 54.819C4.131 55.479 4.18 56.105 4.21 56.763C4.235 57.297 4.224 57.836 4.278 58.368C4.375 59.326 4.737 60.351 5.12 61.231C5.483 62.067 6.206 63.503 7.124 63.836C7.952 64.136 9.228 63.67 9.971 63.302C11.341 62.624 12.367 61.419 13.29 60.229C14.47 58.708 15.39 56.996 16.424 55.377C17.009 54.461 17.631 53.566 18.222 52.653C19.626 50.453 21.067 48.277 22.547 46.127C22.992 45.493 23.453 44.852 23.945 44.253C24.561 43.503 26.087 42.08 26.367 41.23C26.578 40.59 26.666 39.871 26.789 39.205C27.128 37.414 27.373 35.606 27.523 33.789C27.619 32.566 27.647 31.335 27.703 30.109C27.775 28.515 27.871 26.91 27.793 25.314C27.66 22.601 26.722 16.196 25.494 13.855C25.303 13.49 25.072 13.164 24.66 13.045C23.953 12.84 23.113 13.007 22.486 13.371C21.777 13.782 21.214 14.41 20.675 15.015C19.074 16.814 18.331 18.015 17.513 20.303C17.294 20.917 17.071 21.53 16.904 22.161C16.693 22.96 16.523 23.796 16.43 24.617C16.338 25.431 16.256 28.684 16.65 29.294C16.707 29.384 16.729 29.386 16.827 29.41C17.105 29.281 17.179 28.921 17.448 28.75C17.59 28.66 17.769 28.606 17.934 28.665C18.056 28.709 18.133 28.804 18.175 28.923C18.318 29.33 18.092 29.936 17.898 30.303C17.709 30.66 17.342 31.288 16.919 31.377C16.732 31.416 16.577 31.369 16.422 31.264C15.778 30.829 15.419 29.701 15.279 28.972C15.055 27.81 15.185 26.655 15.287 25.489C15.37 24.545 15.43 23.603 15.586 22.667C15.976 20.332 16.922 17.916 18.241 15.95C18.674 15.304 19.158 14.705 19.667 14.117C20.767 12.847 21.844 11.855 23.56 11.519Z" fill="var(--fill-0, #2A315F)"/>
<path id="Vector_5" d="M34.822 35.415C34.954 35.537 35.04 35.651 35.067 35.833C35.015 35.983 35.005 35.977 34.866 36.059C34.723 35.979 34.665 35.971 34.597 35.818C34.62 35.657 34.728 35.542 34.822 35.415ZM40.61 39.488L40.752 39.573C40.801 39.676 40.844 39.729 40.799 39.845C40.716 40.065 40.428 40.168 40.226 40.227C40.179 40.216 40.131 40.193 40.087 40.176L40.064 40.076C40.163 39.81 40.383 39.642 40.61 39.488ZM46.335 42.232C46.344 42.262 46.352 42.288 46.355 42.321C46.395 42.763 45.487 45.638 45.226 46.012C45.213 45.984 45.197 45.958 45.188 45.929C45.074 45.555 46.08 42.728 46.335 42.232ZM64.62 15.003L64.695 15.088C64.716 15.152 64.727 15.207 64.72 15.275C64.595 16.426 63.497 18.349 62.994 19.482C62.465 20.672 61.999 21.946 61.351 23.076C61.168 23.394 60.973 23.656 60.679 23.884C60.632 23.835 60.604 23.827 60.601 23.753C60.597 23.613 60.637 23.472 60.687 23.342C61.289 21.768 62.079 20.236 62.794 18.71C63.232 17.775 63.609 16.805 64.074 15.884C64.232 15.572 64.398 15.274 64.62 15.003ZM33.608 37.406C33.92 37.458 34.51 37.491 34.751 37.691C34.823 37.751 34.844 37.845 34.844 37.937C34.846 38.723 33.983 40.1 33.407 40.644C33.284 40.732 33.162 40.821 33.035 40.902C32.911 40.982 32.795 41.045 32.646 41.014C32.561 40.912 32.54 40.852 32.531 40.718C32.483 39.954 33.091 37.957 33.608 37.406ZM52.597 30.299C52.65 30.321 52.703 30.343 52.754 30.37C52.884 30.44 52.957 30.555 52.991 30.697C53.155 31.361 52.645 32.469 52.303 33.03C51.742 33.95 51.103 34.33 50.082 34.579C49.932 34.586 49.809 34.589 49.663 34.55C49.713 34.158 52.182 30.72 52.597 30.299ZM36.598 54.07L36.715 54.17C36.881 54.602 36.78 55.132 36.712 55.577C36.518 56.844 36.179 58.092 35.884 59.337C35.69 60.182 35.514 61.031 35.357 61.883C35.181 62.806 35.061 63.741 34.926 64.67C34.839 65.267 34.779 65.881 34.583 66.453C34.4 66.616 34.196 66.731 33.973 66.829C33.133 67.199 32.234 67.446 31.383 67.795C30.685 68.082 30.032 68.472 29.33 68.742L29.184 68.754L29.172 68.7C29.412 68.166 29.731 67.666 29.998 67.146C30.505 66.158 30.973 65.141 31.444 64.135C32.073 62.789 32.673 61.416 33.274 60.058C33.96 58.507 35.268 55.043 36.598 54.07ZM54.772 16.731C55.025 16.708 55.278 16.717 55.533 16.723C55.904 17.211 56.194 17.911 56.264 18.522C56.663 21.993 51.594 29.308 49.504 31.993L48.821 32.868C48.836 32.188 48.918 31.505 48.98 30.828C49.332 26.979 50.264 21.758 52.452 18.525C53.053 17.639 53.688 16.94 54.772 16.731Z" fill="var(--fill-0, white)"/>
</g>
<defs>
<clipPath id="clip0_103_125">
<rect width="97" height="97" fill="white"/>
</clipPath>
</defs>
</svg>
