<svg preserveAspectRatio="none" width="100%" height="100%" overflow="visible" style="display: block;" viewBox="0 0 30.9375 29.1359" fill="none" xmlns="http://www.w3.org/2000/svg">
<g id="Solution">
<path id="Vector" d="M21.1406 20.8859V18.0273C20.5117 17.9697 19.9155 17.7205 19.4327 17.3133C18.9499 16.9061 18.6037 16.3605 18.4408 15.7503L18.0469 16.1422V18.8234C18.0477 19.5069 18.3196 20.1622 18.8029 20.6455C19.2862 21.1288 19.9415 21.4007 20.625 21.4015C20.7618 21.4015 20.8929 21.3472 20.9896 21.2505C21.0863 21.1538 21.1406 21.0227 21.1406 20.8859Z" fill="var(--fill-0, #E8C700)"/>
<path id="Vector_2" d="M11.3494 14.124C11.4463 14.0754 11.556 14.0585 11.663 14.0758C11.77 14.0931 11.8689 14.1437 11.9455 14.2204L12.8906 15.1656V14.6984C12.8899 14.3598 12.9558 14.0244 13.0847 13.7114C13.2136 13.3983 13.4029 13.1137 13.6417 12.8737C14.1242 12.3892 14.7793 12.1161 15.4631 12.1146C16.1468 12.1131 16.8032 12.3833 17.2877 12.8657C17.7723 13.3481 18.0454 14.0033 18.0469 14.6871L18.5135 14.2204C18.59 14.143 18.689 14.0918 18.7964 14.0742C18.9038 14.0565 19.014 14.0732 19.1112 14.122C19.2085 14.1707 19.2879 14.249 19.338 14.3456C19.388 14.4422 19.4063 14.5521 19.3901 14.6597C19.3294 15.0881 19.4051 15.5247 19.6062 15.9078C19.8074 16.2908 20.1239 16.6009 20.5111 16.7941C20.8982 16.9874 21.3362 17.054 21.7633 16.9845C22.1903 16.9151 22.5847 16.7131 22.8906 16.4072C23.1966 16.1012 23.3985 15.7068 23.468 15.2798C23.5374 14.8528 23.4708 14.4147 23.2776 14.0276C23.0843 13.6405 22.7743 13.3239 22.3912 13.1228C22.0082 12.9216 21.5716 12.846 21.1432 12.9066C21.0356 12.9228 20.9256 12.9046 20.829 12.8545C20.7324 12.8044 20.6542 12.725 20.6054 12.6278C20.5567 12.5305 20.5399 12.4203 20.5576 12.3129C20.5753 12.2056 20.6265 12.1065 20.7039 12.03L23.9848 8.74397L21.6738 6.43345C21.4605 6.88007 21.1431 7.269 20.7484 7.56757C20.3537 7.86615 19.893 8.06566 19.4052 8.14935C18.9174 8.23305 18.4167 8.19848 17.945 8.04856C17.4733 7.89864 17.0444 7.63774 16.6945 7.28777C16.3445 6.93779 16.0836 6.50896 15.9337 6.03727C15.7837 5.56558 15.7492 5.06481 15.8329 4.577C15.9166 4.08919 16.1161 3.62857 16.4147 3.23384C16.7132 2.8391 17.1022 2.52175 17.5488 2.30845L15.2316 1.86265e-07L11.9455 3.28092C11.869 3.3583 11.77 3.4095 11.6626 3.42719C11.5552 3.44488 11.445 3.42815 11.3478 3.37939C11.2505 3.33064 11.1711 3.25236 11.121 3.15577C11.071 3.05917 11.0527 2.94921 11.0689 2.84161C11.1139 2.52527 11.0848 2.2028 10.9839 1.89964C10.8829 1.59647 10.7129 1.32091 10.4873 1.09467C10.0942 0.720174 9.57205 0.511279 9.02911 0.511279C8.48617 0.511279 7.96404 0.720174 7.57092 1.09467C7.26607 1.40091 7.06511 1.79516 6.99639 2.22176C6.92767 2.64836 6.99467 3.08578 7.18794 3.47225C7.3812 3.85872 7.69097 4.17473 8.07351 4.37568C8.45604 4.57662 8.89203 4.65234 9.31992 4.59216C9.42752 4.57595 9.53748 4.59419 9.63408 4.64428C9.73068 4.69436 9.80895 4.77372 9.85771 4.871C9.90646 4.96828 9.92319 5.07848 9.9055 5.18584C9.88781 5.29321 9.83662 5.39222 9.75923 5.46872L6.4778 8.74809L9.75975 12.0342C9.8372 12.1107 9.88843 12.2098 9.90612 12.3172C9.92381 12.4246 9.90703 12.5349 9.85821 12.6322C9.80938 12.7295 9.731 12.8089 9.63431 12.8589C9.53761 12.9089 9.42756 12.9271 9.31992 12.9107C8.89154 12.8501 8.45493 12.9257 8.0719 13.1269C7.68886 13.3281 7.37878 13.6446 7.18554 14.0317C6.99231 14.4188 6.9257 14.8569 6.99514 15.2839C7.06458 15.711 7.26656 16.1054 7.57249 16.4113C7.87842 16.7172 8.27282 16.9192 8.69986 16.9886C9.1269 17.0581 9.56497 16.9915 9.95208 16.7982C10.3392 16.605 10.6557 16.2949 10.8569 15.9119C11.0581 15.5288 11.1337 15.0922 11.073 14.6639C11.0562 14.5562 11.0738 14.446 11.1235 14.349C11.1731 14.252 11.2522 14.1732 11.3494 14.124Z" fill="var(--fill-0, #E8C700)"/>
<path id="Vector_3" d="M17.1786 27.6566L17.6942 26.6253C17.9437 26.1239 18.0735 25.5715 18.0735 25.0114C18.0735 24.4514 17.9437 23.8989 17.6942 23.3975L17.5055 23.019C17.1841 22.3742 17.0165 21.6636 17.0156 20.9431V14.6984C17.0156 14.2881 16.8527 13.8947 16.5626 13.6046C16.2725 13.3145 15.879 13.1515 15.4688 13.1515C15.0585 13.1515 14.665 13.3145 14.3749 13.6046C14.0848 13.8947 13.9219 14.2881 13.9219 14.6984V21.9172C13.9219 22.0539 13.8676 22.1851 13.7709 22.2818C13.6742 22.3785 13.543 22.4328 13.4063 22.4328C13.2695 22.4328 13.1383 22.3785 13.0416 22.2818C12.9449 22.1851 12.8906 22.0539 12.8906 21.9172V16.6238L12.0172 15.7508C11.8414 16.4082 11.4533 16.9892 10.9134 17.4034C10.3734 17.8176 9.71171 18.0418 9.03117 18.0412C8.97652 18.0412 8.92341 18.036 8.86927 18.0335L7.60805 21.6635C7.50393 21.8863 7.45379 22.1305 7.46167 22.3763C7.46955 22.6221 7.53525 22.8627 7.65342 23.0783C7.66272 23.095 7.67099 23.1122 7.67817 23.1299L9.4875 27.4117C9.69007 27.7898 9.79633 28.212 9.79688 28.6409V29.1359H17.0156V28.348C17.0158 28.1081 17.0716 27.8714 17.1786 27.6566Z" fill="var(--fill-0, #E8C700)"/>
<path id="Vector_4" d="M30.4219 9.54216H27.3281C27.1914 9.54216 27.0602 9.48783 26.9635 9.39113C26.8668 9.29444 26.8125 9.16328 26.8125 9.02653C26.8125 8.88978 26.8668 8.75863 26.9635 8.66193C27.0602 8.56523 27.1914 8.51091 27.3281 8.51091H30.4219C30.5586 8.51091 30.6898 8.56523 30.7865 8.66193C30.8832 8.75863 30.9375 8.88978 30.9375 9.02653C30.9375 9.16328 30.8832 9.29444 30.7865 9.39113C30.6898 9.48783 30.5586 9.54216 30.4219 9.54216Z" fill="var(--fill-0, #E8C700)"/>
<path id="Vector_5" d="M26.7707 3.61247C26.6572 3.61246 26.5469 3.57501 26.4569 3.50591C26.3668 3.43681 26.3021 3.33993 26.2727 3.2303C26.2433 3.12066 26.2509 3.0044 26.2944 2.89954C26.3378 2.79467 26.4146 2.70707 26.5129 2.65031L29.1942 1.10344C29.3125 1.03614 29.4527 1.01839 29.5841 1.05407C29.7155 1.08974 29.8275 1.17594 29.8956 1.29386C29.9636 1.41178 29.9823 1.55184 29.9475 1.68347C29.9127 1.81511 29.8273 1.92764 29.7098 1.9965L27.0285 3.54338C26.9502 3.58882 26.8613 3.61266 26.7707 3.61247Z" fill="var(--fill-0, #E8C700)"/>
<path id="Vector_6" d="M29.4494 17.0187C29.3589 17.0189 29.2699 16.9951 29.1916 16.9496L26.5103 15.4028C26.4512 15.3691 26.3993 15.3242 26.3577 15.2704C26.316 15.2167 26.2854 15.1552 26.2676 15.0896C26.2498 15.024 26.2451 14.9555 26.2539 14.888C26.2626 14.8206 26.2847 14.7556 26.3187 14.6967C26.3527 14.6378 26.398 14.5862 26.452 14.5449C26.506 14.5036 26.5677 14.4734 26.6334 14.456C26.6991 14.4386 26.7677 14.4344 26.835 14.4436C26.9024 14.4528 26.9673 14.4753 27.026 14.5097L29.7072 16.0566C29.8055 16.1133 29.8823 16.2009 29.9258 16.3058C29.9692 16.4106 29.9768 16.5269 29.9474 16.6365C29.9181 16.7462 29.8533 16.8431 29.7633 16.9122C29.6732 16.9813 29.5629 17.0187 29.4494 17.0187Z" fill="var(--fill-0, #E8C700)"/>
<path id="Vector_7" d="M3.60938 9.54216H0.515625C0.378873 9.54216 0.247721 9.48783 0.151023 9.39113C0.0543246 9.29444 0 9.16328 0 9.02653C0 8.88978 0.0543246 8.75863 0.151023 8.66193C0.247721 8.56523 0.378873 8.51091 0.515625 8.51091H3.60938C3.74613 8.51091 3.87728 8.56523 3.97398 8.66193C4.07068 8.75863 4.125 8.88978 4.125 9.02653C4.125 9.16328 4.07068 9.29444 3.97398 9.39113C3.87728 9.48783 3.74613 9.54216 3.60938 9.54216Z" fill="var(--fill-0, #E8C700)"/>
<path id="Vector_8" d="M4.16677 3.61247C4.07623 3.61266 3.98726 3.58882 3.90895 3.54338L1.2277 1.9965C1.11024 1.92764 1.02478 1.81511 0.989981 1.68347C0.955178 1.55184 0.973855 1.41178 1.04194 1.29386C1.11002 1.17594 1.22198 1.08974 1.35338 1.05407C1.48478 1.01839 1.62496 1.03614 1.74333 1.10344L4.42458 2.65031C4.52287 2.70707 4.59969 2.79467 4.64312 2.89954C4.68656 3.0044 4.69417 3.12066 4.6648 3.2303C4.63542 3.33993 4.57069 3.43681 4.48064 3.50591C4.3906 3.57501 4.28027 3.61246 4.16677 3.61247Z" fill="var(--fill-0, #E8C700)"/>
<path id="Vector_9" d="M1.48809 17.0187C1.37459 17.0187 1.26426 16.9813 1.17422 16.9122C1.08417 16.8431 1.01944 16.7462 0.990061 16.6365C0.960684 16.5269 0.968303 16.4106 1.01174 16.3058C1.05517 16.2009 1.13199 16.1133 1.23028 16.0566L3.91153 14.5097C3.97019 14.4753 4.03508 14.4528 4.10245 14.4436C4.16983 14.4344 4.23836 14.4386 4.3041 14.456C4.36984 14.4734 4.4315 14.5036 4.48551 14.5449C4.53953 14.5862 4.58485 14.6378 4.61885 14.6967C4.65285 14.7556 4.67486 14.8206 4.68363 14.888C4.69239 14.9555 4.68773 15.024 4.66992 15.0896C4.6521 15.1552 4.62148 15.2167 4.57982 15.2704C4.53815 15.3242 4.48627 15.3691 4.42716 15.4028L1.74591 16.9496C1.6676 16.9951 1.57863 17.0189 1.48809 17.0187Z" fill="var(--fill-0, #E8C700)"/>
</g>
</svg>
