<svg preserveAspectRatio="none" width="100%" height="100%" overflow="visible" style="display: block;" viewBox="0 0 28 28" fill="none" xmlns="http://www.w3.org/2000/svg">
<g id="puzzle 1" clip-path="url(#clip0_232_14)">
<path id="Vector" d="M3.51647 13.2176H0.7V2.26471C0.7 1.40054 1.40054 0.7 2.26471 0.7H13.2176V4.86368C13.2174 5.29576 13.5674 5.64626 13.9995 5.64654C14.1977 5.64667 14.3886 5.57155 14.5336 5.43637C14.9164 5.08172 15.42 4.88642 15.9418 4.89028C17.0842 4.89028 18.0103 5.8164 18.0103 6.95882C18.0103 8.10125 17.0842 9.02737 15.9418 9.02737C15.42 9.03123 14.9164 8.83593 14.5336 8.48128C14.2176 8.1866 13.7225 8.20389 13.4278 8.51989C13.2926 8.66486 13.2175 8.85574 13.2176 9.05396V13.2176H10.4012C11.043 11.3165 10.0222 9.25496 8.12102 8.6131C6.21986 7.97124 4.15833 8.9921 3.51647 10.8933C3.26195 11.6472 3.26195 12.4638 3.51647 13.2176ZM8.42965 21.0412C8.43582 19.0311 10.0703 17.4067 12.0803 17.4129C12.4669 17.4141 12.8508 17.4768 13.2176 17.5988V14.7824H9.05396C8.62188 14.7826 8.27138 14.4326 8.27111 14.0005C8.27098 13.8023 8.3461 13.6114 8.48128 13.4664C8.83593 13.0836 9.03122 12.58 9.02736 12.0582C9.02756 10.9158 8.1016 9.9895 6.95917 9.98931C5.81675 9.98911 4.89048 10.9151 4.89028 12.0575V12.0582C4.88642 12.58 5.08172 13.0836 5.43636 13.4664C5.73104 13.7824 5.71376 14.2775 5.39775 14.5722C5.25278 14.7074 5.0619 14.7825 4.86368 14.7824H0.7V25.7353C0.7 26.5995 1.40054 27.3 2.26471 27.3H13.2176V24.4835C11.3103 25.1178 9.2499 24.0858 8.6156 22.1785C8.4936 21.8117 8.43083 21.4278 8.42965 21.0412ZM24.4835 14.7824C25.1254 16.6835 24.1045 18.745 22.2034 19.3869C20.3022 20.0288 18.2407 19.0079 17.5988 17.1067C17.3443 16.3528 17.3443 15.5362 17.5988 14.7824H14.7824V18.946C14.7826 19.3781 14.4326 19.7286 14.0005 19.7289C13.8023 19.729 13.6114 19.6539 13.4664 19.5187C13.0836 19.1641 12.58 18.9688 12.0582 18.9726C10.9158 18.9724 9.9895 19.8984 9.98931 21.0408C9.98911 22.1832 10.9151 23.1095 12.0575 23.1097H12.0582C12.58 23.1136 13.0836 22.9183 13.4664 22.5636C13.7824 22.269 14.2775 22.2862 14.5722 22.6022C14.7074 22.7472 14.7825 22.9381 14.7824 23.1363V27.3H25.7353C26.5995 27.3 27.3 26.5995 27.3 25.7353V14.7824H24.4835Z" fill="var(--fill-0, #E8C700)"/>
</g>
<defs>
<clipPath id="clip0_232_14">
<rect width="28" height="28" fill="white"/>
</clipPath>
</defs>
</svg>
