<svg preserveAspectRatio="none" width="100%" height="100%" overflow="visible" style="display: block;" viewBox="0 0 146 31" fill="none" xmlns="http://www.w3.org/2000/svg">
<g id="ivylistic-logo-horizontal 1" clip-path="url(#clip0_103_13)">
<path id="Vector" d="M54.4262 20.6548V20.3987C55.9065 20.3987 55.9941 19.3301 55.9941 17.7473V7.99719C55.9941 6.41539 55.9065 5.34581 54.4262 5.34581V5.08969H60V5.34581C58.5197 5.34581 58.4321 6.41434 58.4321 7.99719V17.7473C58.4321 19.3291 58.5197 20.3987 60 20.3987V20.6548H54.4262Z" fill="var(--fill-0, #102A43)"/>
<path id="Vector_2" d="M70.1463 5.08864H73.8038V5.34475C72.9765 5.51585 72.4977 6.77751 71.5614 9.34283L67.3374 20.9098H66.8586L62.0692 7.824C61.4376 6.0711 61.0026 5.42978 60.0877 5.34371V5.08759H65.6615V5.34371C64.442 5.42978 64.0284 6.00603 64.4645 7.2467L67.9702 17.1248L70.8218 9.21372C71.7367 6.69039 71.54 5.5148 70.1473 5.34371V5.08759L70.1463 5.08864Z" fill="var(--fill-0, #102A43)"/>
<path id="Vector_3" d="M82.9261 5.08864H86.5836V5.34476C85.6687 5.47281 84.6458 6.9486 83.4487 9.34283L81.1412 13.9822V17.7452C81.1412 19.327 81.2288 20.3966 82.7091 20.3966V20.6527H77.1352V20.3966C78.6156 20.3966 78.7032 19.328 78.7032 17.7452V14.2604L75.5032 7.82505C74.6107 6.02912 74.1746 5.43083 73.5216 5.34476V5.08864H79.0955V5.34476C77.8759 5.43083 77.3757 6.09315 77.9411 7.24775L80.7938 13.1278L82.7529 9.08671C83.8634 6.7985 84.3209 5.51585 82.9271 5.34476V5.08864H82.9261Z" fill="var(--fill-0, #102A43)"/>
<path id="Vector_4" d="M86.5622 20.6548V20.3987C88.0425 20.3987 88.1301 19.3301 88.1301 17.7473V7.99719C88.1301 6.41539 88.0436 5.34581 86.5622 5.34581V5.08969H92.136V5.34581C90.6557 5.34581 90.5681 6.41434 90.5681 7.99719V19.073C90.5681 19.7143 90.7637 20.0565 91.4167 20.0565H92.353C94.7044 20.0565 95.6845 19.4151 97.1648 16.5496H97.4256L96.8591 20.6548H86.5611H86.5622Z" fill="var(--fill-0, #D3A337)"/>
<path id="Vector_5" d="M98.0583 20.6548V20.3987C99.5387 20.3987 99.6263 19.3301 99.6263 17.7473V7.99719C99.6263 6.41539 99.5397 5.34581 98.0583 5.34581V5.08969H103.632V5.34581C102.152 5.34581 102.064 6.41434 102.064 7.99719V17.7473C102.064 19.3291 102.152 20.3987 103.632 20.3987V20.6548H98.0583Z" fill="var(--fill-0, #D3A337)"/>
<path id="Vector_6" d="M104.742 20.0344L104.611 16.5066H104.872C105.83 18.9869 107.202 20.3126 109.183 20.3126C111.033 20.3126 112.252 19.179 112.252 17.4051C112.252 15.5241 110.902 14.7758 109.074 13.8983L107.963 13.364C106.504 12.6586 104.937 11.6751 104.937 9.27985C104.937 6.71453 106.81 4.83253 109.487 4.83253C110.684 4.83253 112.361 5.21775 113.407 5.68799V8.46743H113.146C112.166 6.37235 111.012 5.43188 109.358 5.43188C107.594 5.43188 106.68 6.54344 106.68 8.10425C106.68 9.87919 107.856 10.4775 109.185 11.1188L110.295 11.6531C112.189 12.5726 113.996 13.513 113.996 16.1434C113.996 18.7738 111.95 20.9119 108.901 20.9119C107.638 20.9119 105.767 20.5488 104.743 20.0355L104.742 20.0344Z" fill="var(--fill-0, #D3A337)"/>
<path id="Vector_7" d="M126.688 8.46743H126.427C125.23 6.17922 124.598 5.68799 122.507 5.68799H121.833V17.7473C121.833 19.3291 121.92 20.3987 123.401 20.3987V20.6548H117.827V20.3987C119.307 20.3987 119.395 19.3301 119.395 17.7473V5.68799H118.721C116.653 5.68799 115.999 6.17922 114.801 8.46743H114.541L114.845 5.08969H126.384L126.689 8.46743H126.688Z" fill="var(--fill-0, #D3A337)"/>
<path id="Vector_8" d="M127.319 20.6548V20.3987C128.8 20.3987 128.887 19.3301 128.887 17.7473V7.99719C128.887 6.41539 128.8 5.34581 127.319 5.34581V5.08969H132.893V5.34581C131.413 5.34581 131.325 6.41434 131.325 7.99719V17.7473C131.325 19.3291 131.413 20.3987 132.893 20.3987V20.6548H127.319Z" fill="var(--fill-0, #D3A337)"/>
<path id="Vector_9" d="M133.502 12.9147C133.502 8.12525 136.66 4.83253 140.992 4.83253C143.169 4.83253 144.693 5.47386 145.694 5.98713L145.825 8.93767H145.564C144.519 6.75652 143.169 5.43083 140.905 5.43083C138.031 5.43083 136.202 8.42439 136.202 12.8717C136.202 17.319 138.075 20.3126 140.905 20.3126C143.169 20.3126 144.693 18.9019 145.738 16.4216H145.999L145.607 19.8424C144.605 20.3126 143.081 20.9109 140.992 20.9109C136.659 20.9109 133.502 17.8323 133.502 12.9147Z" fill="var(--fill-0, #D3A337)"/>
<path id="Vector_10" d="M63.5634 25.0496C63.1316 25.0496 63.106 25.3613 63.106 25.8242V28.6709C63.106 29.1327 63.1316 29.3699 63.5634 29.3699V29.4822H61.9356V29.3699C62.3685 29.3699 62.3931 29.1327 62.3931 28.6709V27.3032H60.6124V28.6709C60.6124 29.1327 60.6381 29.3699 61.0699 29.3699V29.4822H59.4421V29.3699C59.875 29.3699 59.8995 29.1327 59.8995 28.6709V25.8242C59.8995 25.3624 59.8739 25.0496 59.4421 25.0496V24.9373H61.0699V25.0496C60.6381 25.0496 60.6124 25.3613 60.6124 25.8242V26.9788H62.3931V25.8242C62.3931 25.3624 62.3674 25.0496 61.9356 25.0496V24.9373H63.5634V25.0496Z" fill="var(--fill-0, #6B3F9F)"/>
<path id="Vector_11" d="M64.1727 29.4822V29.3699C64.4334 29.3699 64.4527 29.1579 64.4527 28.758V27.0723C64.4527 26.6723 64.3447 26.56 64.1288 26.4855V26.3732L65.0384 26.1486H65.1143V28.758C65.1143 29.1579 65.1335 29.3699 65.3943 29.3699V29.4822H64.1737H64.1727ZM64.2678 25.1871C64.2678 24.9499 64.4644 24.762 64.706 24.762C64.9476 24.762 65.1453 24.9488 65.1453 25.1871C65.1453 25.4254 64.9486 25.6122 64.706 25.6122C64.4634 25.6122 64.2678 25.4254 64.2678 25.1871Z" fill="var(--fill-0, #6B3F9F)"/>
<path id="Vector_12" d="M67.9231 28.7769C68.6221 28.7769 68.9845 29.0456 68.9845 29.5945C68.9845 30.4437 68.0054 30.9811 67.1279 30.9811C66.352 30.9811 65.933 30.6001 65.933 30.132C65.933 29.8444 66.0987 29.6701 66.2889 29.4822L66.3584 29.4203H66.6384C66.5048 29.5641 66.4663 29.7257 66.4663 29.9199C66.4663 30.4133 66.7774 30.619 67.4261 30.619C67.9851 30.619 68.5195 30.2946 68.5195 29.8569C68.5195 29.5074 68.2908 29.351 67.8205 29.351H66.5807C66.212 29.351 66.0463 29.1516 66.0463 28.9081C66.0463 28.6394 66.2248 28.4273 66.5935 28.2153C66.2312 28.04 66.0089 27.7031 66.0089 27.2538C66.0089 26.58 66.5241 26.136 67.2551 26.136C67.4454 26.136 67.6239 26.1675 67.7831 26.2231L68.9845 26.1601L68.8701 26.5411L68.2085 26.4971C68.387 26.6786 68.4821 26.9274 68.4821 27.2339C68.4821 27.9088 67.9798 28.3518 67.2423 28.3518C67.0959 28.3518 66.9623 28.3329 66.8351 28.3014C66.6384 28.4263 66.5871 28.5008 66.5871 28.6016C66.5871 28.7023 66.6566 28.7769 66.8351 28.7769H67.9221H67.9231ZM66.6331 27.2412C66.6331 27.7965 66.8361 28.0904 67.2498 28.0904C67.6634 28.0904 67.8601 27.7976 67.8601 27.2412C67.8601 26.6849 67.657 26.3984 67.2498 26.3984C66.8426 26.3984 66.6331 26.686 66.6331 27.2412Z" fill="var(--fill-0, #6B3F9F)"/>
<path id="Vector_13" d="M72.3288 28.758C72.3288 29.1579 72.348 29.3699 72.6088 29.3699V29.4822H71.3882V29.3699C71.649 29.3699 71.6683 29.1579 71.6683 28.758V27.2969C71.6683 26.8602 71.5667 26.5852 71.1157 26.5852C70.887 26.5852 70.6005 26.7101 70.359 26.8854V28.758C70.359 29.1579 70.3782 29.3699 70.639 29.3699V29.4822H69.4184V29.3699C69.6792 29.3699 69.6984 29.1579 69.6984 28.758V25.4737C69.6984 25.0737 69.5905 24.9614 69.3746 24.8869V24.7746L70.2841 24.5993H70.36V26.6157C70.6903 26.3407 71.1232 26.1349 71.5176 26.1349C72.0263 26.1349 72.3309 26.4845 72.3309 27.109V28.7569L72.3288 28.758Z" fill="var(--fill-0, #6B3F9F)"/>
<path id="Vector_14" d="M75.9841 28.7202C75.7297 29.1946 75.2851 29.5567 74.5979 29.5567C73.7076 29.5567 73.1422 28.8136 73.1422 27.8962C73.1422 26.8476 73.8796 26.136 74.7764 26.136C75.5331 26.136 76.0418 26.6786 75.9777 27.5341H73.8166V27.6086C73.8166 28.4704 74.1917 29.0823 74.8779 29.0823C75.2851 29.0823 75.6026 28.8577 75.8185 28.6205L75.9841 28.7202ZM73.8476 27.2591H75.3354C75.3738 26.6975 75.1825 26.3973 74.7443 26.3973C74.3061 26.3973 73.9491 26.7343 73.8476 27.2591Z" fill="var(--fill-0, #6B3F9F)"/>
<path id="Vector_15" d="M78.6989 26.1853L78.5332 26.8718H78.4445C78.2917 26.7343 78.1271 26.6849 77.9999 26.6849C77.8214 26.6849 77.6825 26.7658 77.5296 26.9599V28.758C77.5296 29.1579 77.5489 29.3699 77.8097 29.3699V29.4822H76.5891V29.3699C76.8499 29.3699 76.8691 29.1579 76.8691 28.758V27.0723C76.8691 26.6723 76.7612 26.56 76.5452 26.4855V26.3732L77.4548 26.1486H77.5307V26.6671C77.7979 26.3428 78.1089 26.136 78.4082 26.136C78.4777 26.136 78.6113 26.1486 78.7011 26.1853H78.6989Z" fill="var(--fill-0, #6B3F9F)"/>
<path id="Vector_16" d="M82.9581 28.7202C82.7038 29.1946 82.2591 29.5567 81.5719 29.5567C80.6816 29.5567 80.1162 28.8136 80.1162 27.8962C80.1162 26.8476 80.8536 26.136 81.7504 26.136C82.5071 26.136 83.0159 26.6786 82.9517 27.5341H80.7906V27.6086C80.7906 28.4704 81.1657 29.0823 81.8519 29.0823C82.2591 29.0823 82.5766 28.8577 82.7925 28.6205L82.9581 28.7202ZM80.8216 27.2591H82.3094C82.3478 26.6975 82.1565 26.3973 81.7183 26.3973C81.2801 26.3973 80.9231 26.7343 80.8216 27.2591Z" fill="var(--fill-0, #6B3F9F)"/>
<path id="Vector_17" d="M86.5109 28.6331C86.5109 29.033 86.6188 29.2072 86.8347 29.2828V29.3951L86.0524 29.5578H85.9765L85.8878 29.1211C85.627 29.3836 85.2646 29.5578 84.8702 29.5578C84.1071 29.5578 83.5097 28.8587 83.5097 27.9225C83.5097 26.7427 84.3358 26.137 85.1182 26.137C85.3982 26.137 85.6462 26.199 85.8493 26.305V25.4747C85.8493 25.0748 85.7413 24.9625 85.5254 24.888V24.7756L86.435 24.6004H86.5109V28.6341V28.6331ZM85.8504 28.864V27.1846C85.8504 26.6849 85.5137 26.3984 85.1578 26.3984C84.5282 26.3984 84.2236 26.9411 84.2236 27.7598C84.2236 28.5785 84.5795 29.1579 85.1642 29.1579C85.4506 29.1579 85.6729 29.0393 85.8504 28.865V28.864Z" fill="var(--fill-0, #6B3F9F)"/>
<path id="Vector_18" d="M90.287 28.6331C90.287 29.033 90.395 29.2072 90.6109 29.2828V29.3951L89.8285 29.5578H89.7526L89.6446 29.0214C89.308 29.3458 88.8687 29.5578 88.4689 29.5578C87.9602 29.5578 87.6556 29.2083 87.6556 28.5837V26.9473C87.6556 26.5474 87.5348 26.3984 87.3189 26.3228V26.2105L88.2413 26.1475H88.3172V28.3958C88.3172 28.8325 88.4187 29.1075 88.8698 29.1075C89.0985 29.1075 89.3849 28.9826 89.6265 28.7643V26.9473C89.6265 26.5474 89.5057 26.3984 89.2898 26.3228V26.2105L90.2122 26.1475H90.2881V28.632L90.287 28.6331Z" fill="var(--fill-0, #6B3F9F)"/>
<path id="Vector_19" d="M91.1517 27.8899C91.1517 26.8413 91.8763 26.136 92.7218 26.136C93.192 26.136 93.7072 26.3606 93.9359 26.6608L93.6302 27.0974H93.5159C93.363 26.7479 93.1279 26.3984 92.7089 26.3984C92.3209 26.3984 91.825 26.6734 91.825 27.6097C91.825 28.4462 92.2002 29.0834 92.8863 29.0834C93.2936 29.0834 93.611 28.8587 93.8269 28.6215L93.9926 28.7212C93.7382 29.1957 93.2936 29.5578 92.6063 29.5578C91.7096 29.5578 91.1506 28.8273 91.1506 27.891L91.1517 27.8899Z" fill="var(--fill-0, #6B3F9F)"/>
<path id="Vector_20" d="M97.2792 29.2135C97.1776 29.3195 96.9489 29.5567 96.6048 29.5567C96.2991 29.5567 96.1975 29.3447 96.1665 29.1442C95.9122 29.4004 95.5434 29.5567 95.2003 29.5567C94.7739 29.5567 94.418 29.2754 94.418 28.8199C94.418 28.3644 94.7546 28.0085 95.5178 27.7892L96.1217 27.6212V27.2339C96.1217 27.0534 96.1217 26.5096 95.5434 26.5096C95.149 26.5096 94.9011 26.7595 94.7365 27.0712L94.4821 26.9778C94.59 26.622 95.0347 26.1349 95.785 26.1349C96.484 26.1349 96.7768 26.559 96.7768 27.1772V28.7821C96.7768 28.9385 96.7768 29.1442 96.9553 29.1442C97.013 29.1442 97.0761 29.1253 97.1402 29.076L97.2802 29.2135H97.2792ZM95.5381 29.1642C95.754 29.1642 95.9774 29.0456 96.1227 28.9144V27.8658L95.7476 27.9907C95.2132 28.166 95.0614 28.3276 95.0614 28.6404C95.0614 28.9836 95.2709 29.1652 95.5381 29.1652V29.1642Z" fill="var(--fill-0, #6B3F9F)"/>
<path id="Vector_21" d="M99.7845 29.1075C99.4863 29.3825 99.1036 29.5567 98.7231 29.5567C98.2593 29.5567 97.9728 29.3006 97.9728 28.7328V26.56H97.6426V26.285L97.7313 26.2472C98.0808 26.0971 98.2593 25.8473 98.5201 25.3477H98.6344V26.2095H99.7471L99.6519 26.559H98.6344V28.6194C98.6344 28.969 98.768 29.1191 99.0545 29.1191C99.3089 29.1191 99.5183 29.0256 99.6455 28.9375L99.7855 29.1065L99.7845 29.1075Z" fill="var(--fill-0, #6B3F9F)"/>
<path id="Vector_22" d="M100.184 29.4822V29.3699C100.445 29.3699 100.464 29.1579 100.464 28.758V27.0723C100.464 26.6723 100.356 26.56 100.14 26.4855V26.3732L101.05 26.1486H101.127V28.758C101.127 29.1579 101.146 29.3699 101.407 29.3699V29.4822H100.186H100.184ZM100.28 25.1871C100.28 24.9499 100.477 24.762 100.72 24.762C100.962 24.762 101.158 24.9488 101.158 25.1871C101.158 25.4254 100.961 25.6122 100.72 25.6122C100.478 25.6122 100.28 25.4254 100.28 25.1871Z" fill="var(--fill-0, #6B3F9F)"/>
<path id="Vector_23" d="M101.983 27.8584C101.983 26.8224 102.746 26.1349 103.661 26.1349C104.576 26.1349 105.327 26.7847 105.327 27.8332C105.327 28.8818 104.564 29.5567 103.649 29.5567C102.734 29.5567 101.983 28.907 101.983 27.8584ZM104.616 27.8469C104.616 26.9599 104.234 26.3984 103.649 26.3984C103.065 26.3984 102.696 26.9232 102.696 27.8469C102.696 28.7706 103.078 29.2954 103.662 29.2954C104.247 29.2954 104.616 28.7706 104.616 27.8469Z" fill="var(--fill-0, #6B3F9F)"/>
<path id="Vector_24" d="M108.843 28.758C108.843 29.1579 108.862 29.3699 109.123 29.3699V29.4822H107.902V29.3699C108.163 29.3699 108.182 29.1579 108.182 28.758V27.2969C108.182 26.8602 108.081 26.5852 107.63 26.5852C107.401 26.5852 107.114 26.7101 106.873 26.8854V28.758C106.873 29.1579 106.892 29.3699 107.153 29.3699V29.4822H105.932V29.3699C106.193 29.3699 106.212 29.1579 106.212 28.758V27.0723C106.212 26.6723 106.104 26.56 105.888 26.4855V26.3732L106.798 26.1486H106.875V26.6167C107.205 26.3417 107.638 26.136 108.031 26.136C108.54 26.136 108.845 26.4855 108.845 27.11V28.758H108.843Z" fill="var(--fill-0, #6B3F9F)"/>
<path id="Vector_25" d="M109.764 30.3314C110.05 30.2254 110.368 29.9882 110.368 29.7194C110.368 29.5568 110.286 29.4759 110.107 29.4381C109.84 29.3815 109.732 29.2135 109.732 29.0508C109.732 28.8451 109.891 28.6698 110.139 28.6698C110.445 28.6698 110.756 28.9196 110.756 29.3878C110.756 30.0627 110.241 30.4122 109.84 30.5308L109.763 30.3314H109.764Z" fill="var(--fill-0, #6B3F9F)"/>
<path id="Vector_26" d="M112.453 29.3699L112.403 28.5459H112.517C112.772 29.0456 112.994 29.2954 113.414 29.2954C113.834 29.2954 114.056 29.1023 114.056 28.7958C114.056 28.4893 113.802 28.3402 113.433 28.146L113.185 28.0148C112.873 27.8521 112.486 27.6338 112.486 27.0849C112.486 26.4918 112.963 26.136 113.586 26.136C113.84 26.136 114.209 26.1916 114.457 26.3113V26.9977H114.343C114.177 26.5978 113.955 26.3984 113.586 26.3984C113.217 26.3984 113.04 26.58 113.04 26.8413C113.04 27.2035 113.326 27.3284 113.497 27.4155L113.739 27.5404C114.172 27.765 114.61 27.9655 114.61 28.5459C114.61 29.1642 114.114 29.5578 113.389 29.5578C113.065 29.5578 112.69 29.4833 112.454 29.371L112.453 29.3699Z" fill="var(--fill-0, #6B3F9F)"/>
<path id="Vector_27" d="M115.212 29.4822V29.3699C115.473 29.3699 115.492 29.1579 115.492 28.758V27.0723C115.492 26.6723 115.384 26.56 115.168 26.4855V26.3732L116.077 26.1486H116.154V28.758C116.154 29.1579 116.174 29.3699 116.434 29.3699V29.4822H115.214H115.212ZM115.308 25.1871C115.308 24.9499 115.505 24.762 115.747 24.762C115.99 24.762 116.185 24.9488 116.185 25.1871C116.185 25.4254 115.989 25.6122 115.747 25.6122C115.506 25.6122 115.308 25.4254 115.308 25.1871Z" fill="var(--fill-0, #6B3F9F)"/>
<path id="Vector_28" d="M121.825 28.758C121.825 29.1579 121.844 29.3699 122.105 29.3699V29.4822H120.884V29.3699C121.145 29.3699 121.164 29.1579 121.164 28.758V27.2969C121.164 26.8602 121.062 26.5852 120.611 26.5852C120.376 26.5852 120.128 26.7164 119.906 26.8907C119.912 26.9589 119.919 27.0345 119.919 27.109V28.7569C119.919 29.1568 119.938 29.3689 120.199 29.3689V29.4812H118.978V29.3689C119.239 29.3689 119.258 29.1568 119.258 28.7569V27.2958C119.258 26.8592 119.157 26.5842 118.706 26.5842C118.477 26.5842 118.235 26.7091 118.013 26.8781V28.7569C118.013 29.1568 118.032 29.3689 118.293 29.3689V29.4812H117.073V29.3689C117.333 29.3689 117.353 29.1568 117.353 28.7569V27.0712C117.353 26.6713 117.245 26.559 117.029 26.4845V26.3721L117.938 26.1475H118.015V26.6094C118.326 26.3344 118.721 26.1349 119.109 26.1349C119.497 26.1349 119.738 26.3155 119.853 26.6597C120.176 26.3596 120.603 26.1349 121.016 26.1349C121.525 26.1349 121.83 26.4845 121.83 27.109V28.7569L121.825 28.758Z" fill="var(--fill-0, #6B3F9F)"/>
<path id="Vector_29" d="M125.937 27.7713C125.937 28.9511 125.111 29.5567 124.329 29.5567C124.049 29.5567 123.801 29.4948 123.598 29.3878V30.1813C123.598 30.5812 123.617 30.7932 123.878 30.7932V30.9055H122.657V30.7932C122.918 30.7932 122.937 30.5812 122.937 30.1813V27.0723C122.937 26.6723 122.829 26.56 122.612 26.4855V26.3732L123.522 26.1486H123.598V26.5422C123.852 26.2987 124.202 26.136 124.577 26.136C125.34 26.136 125.937 26.835 125.937 27.7713ZM125.224 27.934C125.224 27.1531 124.868 26.5359 124.284 26.5359C123.997 26.5359 123.775 26.6545 123.598 26.8287V28.5082C123.598 29.0078 123.934 29.2943 124.29 29.2943C124.92 29.2943 125.224 28.7517 125.224 27.933V27.934Z" fill="var(--fill-0, #6B3F9F)"/>
<path id="Vector_30" d="M126.521 29.4822V29.3699C126.782 29.3699 126.801 29.1579 126.801 28.758V25.4737C126.801 25.0737 126.693 24.9614 126.477 24.8869V24.7746L127.387 24.5993H127.462V28.758C127.462 29.1579 127.482 29.3699 127.743 29.3699V29.4822H126.522H126.521Z" fill="var(--fill-0, #6B3F9F)"/>
<path id="Vector_31" d="M128.39 29.4822V29.3699C128.651 29.3699 128.67 29.1579 128.67 28.758V27.0723C128.67 26.6723 128.562 26.56 128.346 26.4855V26.3732L129.256 26.1486H129.333V28.758C129.333 29.1579 129.352 29.3699 129.613 29.3699V29.4822H128.392H128.39ZM128.485 25.1871C128.485 24.9499 128.682 24.762 128.925 24.762C129.167 24.762 129.363 24.9488 129.363 25.1871C129.363 25.4254 129.166 25.6122 128.925 25.6122C128.683 25.6122 128.485 25.4254 128.485 25.1871Z" fill="var(--fill-0, #6B3F9F)"/>
<path id="Vector_32" d="M133.406 28.758C133.406 29.1579 133.425 29.3699 133.686 29.3699V29.4822H132.466V29.3699C132.726 29.3699 132.746 29.1579 132.746 28.758V27.0723C132.746 26.6723 132.638 26.56 132.422 26.56H131.195V28.758C131.195 29.1579 131.214 29.3699 131.475 29.3699V29.4822H130.254V29.3699C130.515 29.3699 130.534 29.1579 130.534 28.758V26.56H130.204V26.285L130.534 26.2105C130.534 25.3613 131.22 24.5741 132.149 24.5741C132.372 24.5741 132.753 24.6182 132.995 24.6864L132.893 25.3236H132.779C132.589 25.0926 132.156 24.9173 131.869 24.9173C131.513 24.9173 131.195 25.1861 131.195 25.6101V26.2095H133.077L133.331 26.1465H133.407V28.7559L133.406 28.758Z" fill="var(--fill-0, #6B3F9F)"/>
<path id="Vector_33" d="M137.105 28.7202C136.851 29.1946 136.405 29.5567 135.719 29.5567C134.829 29.5567 134.263 28.8136 134.263 27.8962C134.263 26.8476 135.001 26.136 135.898 26.136C136.654 26.136 137.163 26.6786 137.099 27.5341H134.937V27.6086C134.937 28.4704 135.312 29.0823 135.998 29.0823C136.405 29.0823 136.723 28.8577 136.939 28.6205L137.104 28.7202H137.105ZM134.97 27.2591H136.458C136.496 26.6975 136.305 26.3973 135.867 26.3973C135.428 26.3973 135.072 26.7343 134.97 27.2591Z" fill="var(--fill-0, #6B3F9F)"/>
<path id="Vector_34" d="M140.659 28.6331C140.659 29.033 140.767 29.2072 140.983 29.2828V29.3951L140.201 29.5578H140.125L140.036 29.1211C139.775 29.3836 139.413 29.5578 139.019 29.5578C138.255 29.5578 137.658 28.8587 137.658 27.9225C137.658 26.7427 138.484 26.137 139.266 26.137C139.546 26.137 139.794 26.199 139.998 26.305V25.4747C139.998 25.0748 139.89 24.9625 139.674 24.888V24.7756L140.583 24.6004H140.659V28.6341V28.6331ZM139.998 28.864V27.1846C139.998 26.6849 139.661 26.3984 139.305 26.3984C138.675 26.3984 138.37 26.9411 138.37 27.7598C138.37 28.5785 138.726 29.1579 139.31 29.1579C139.597 29.1579 139.819 29.0393 139.996 28.865L139.998 28.864Z" fill="var(--fill-0, #6B3F9F)"/>
<path id="Vector_35" d="M11.5432 24.6938L11.5111 16.2883L24.5068 21.7926L37.3412 16.2883V24.656L24.4823 29.4801L11.5432 24.6938Z" fill="var(--fill-0, #6B3F9F)"/>
<path id="Vector_36" d="M48.8533 9.62728L24.4523 19.899L0 9.62728L24.4523 0L48.8533 9.62728Z" fill="var(--fill-0, #6B3F9F)"/>
<path id="Vector_37" d="M4.4281 28.5995C3.89476 28.8189 3.33363 28.8902 2.76075 28.8419C1.3948 28.632 0.533338 27.8584 0.0438214 26.6083C0.488448 26.3973 0.914905 26.2357 1.38518 26.1916C2.45613 26.0866 3.48433 26.5002 4.15127 27.2958C4.22288 27.7283 4.31373 28.1628 4.4281 28.5995Z" fill="var(--fill-0, #D3A337)"/>
<path id="Vector_38" d="M45.7698 27.4134C45.6181 27.5351 45.4556 27.6506 45.2835 27.7493C44.8132 28.0285 44.282 28.2227 43.7027 28.3119C43.1256 28.399 42.557 28.3717 42.0226 28.2458C41.827 28.2027 41.6367 28.1429 41.455 28.0715L41.2658 20.1541L41.2381 18.9785C40.9099 18.7654 40.6727 18.4211 40.6075 18.0118C40.5187 17.4513 40.7753 16.9149 41.2199 16.6179C41.004 16.3135 40.7774 16.0164 40.538 15.7309C40.0004 15.0959 39.374 14.421 38.7499 13.8773C38.2475 13.4196 37.6094 12.9326 37.0686 12.5306C36.8474 12.3847 36.221 11.9722 35.988 11.82C35.7337 11.672 35.1063 11.3172 34.8594 11.1797C34.4308 10.9561 33.9936 10.7472 33.5511 10.5531C33.8515 10.9414 34.0546 11.4075 34.1336 11.9197C34.201 12.3679 34.1454 12.8066 34.0268 13.28C33.3406 13.1834 32.7025 12.9011 32.2322 12.4067C31.5033 11.6384 31.2404 10.7472 31.4434 9.75953C30.1748 9.35437 28.8687 9.06257 27.5465 8.88623C27.7913 8.987 28.0232 9.1329 28.2455 9.30189C29.1017 9.95372 29.5046 10.9593 29.3603 11.9974C28.3193 12.0477 27.3681 11.5995 26.7578 10.7556C26.3345 10.171 26.1924 9.46353 26.2757 8.75083C25.659 8.70045 25.0402 8.67526 24.4245 8.67316C23.4402 8.65531 22.4483 8.71409 21.4586 8.84215C21.5355 8.8495 21.6125 8.85999 21.6894 8.87469C22.9913 9.1287 23.997 10.1804 24.0622 11.5429C22.2581 11.9291 20.58 10.8323 20.4047 9.00274C19.1382 9.22946 17.8834 9.56955 16.6703 10.0177C17.971 9.99675 19.1916 10.7882 19.5871 12.137C17.9433 12.8896 16.0322 12.1622 15.4358 10.5121C14.3841 10.9719 13.3709 11.5156 12.4186 12.1349C12.4656 12.1275 12.5137 12.1233 12.5628 12.1191C13.7332 12.0278 14.8373 12.5306 15.4796 13.5729C14.8351 14.0798 14.0089 14.3181 13.1913 14.2446C12.3234 14.1628 11.5496 13.7807 11.0291 13.1205C10.5684 13.4815 10.1238 13.8594 9.70269 14.2614C9.99341 14.2436 10.2916 14.2866 10.5781 14.3874C10.8848 14.4944 11.1392 14.6729 11.4 14.886C10.8602 15.6375 10.1527 16.0101 9.20997 15.9241C8.91712 15.8779 8.64243 15.7887 8.38805 15.647C8.0781 16.0122 7.78738 16.3901 7.51269 16.7806C8.16895 16.4405 8.93956 16.3366 9.69842 16.5035C10.1612 16.6042 10.5642 16.8162 10.9789 17.0776C10.3386 18.2616 9.38633 18.925 8.00649 18.9722C7.45284 18.9544 6.92592 18.8263 6.43747 18.5649C5.9907 19.4382 5.63158 20.3598 5.374 21.3265C5.76305 20.6201 6.42571 20.0785 7.24335 19.8308C7.69439 19.6954 8.15078 19.6797 8.64457 19.7048C8.68839 21.0442 8.1978 22.0865 7.02425 22.8002C6.4054 23.1204 5.73205 23.2715 5.0106 23.1938C4.97319 23.4909 4.9454 23.7932 4.92723 24.0986C4.88127 24.8712 4.90586 25.6458 4.99457 26.4141C5.29277 25.4243 6.07941 24.6465 7.10868 24.3338C7.56079 24.1962 8.01717 24.1826 8.5099 24.2057C8.55372 25.545 8.06527 26.5873 6.89171 27.3011C6.36799 27.5729 5.80687 27.722 5.20833 27.7167C5.41996 28.7107 5.74167 29.6806 6.16919 30.6085L5.26605 31.0021C4.91013 30.2002 4.63117 29.3993 4.42596 28.6016C4.3116 28.1649 4.22075 27.7304 4.14914 27.2979C3.99843 26.3816 3.94179 25.4779 3.97171 24.5846C3.42021 24.466 2.93069 24.2183 2.49354 23.8688C1.48565 22.9409 1.21524 21.8251 1.52734 20.5215C2.01578 20.5928 2.46041 20.6957 2.87511 20.9172C3.47792 21.2415 3.94606 21.7286 4.22823 22.3069C4.39389 21.4703 4.63331 20.6537 4.94006 19.8602C4.37893 19.5474 3.9482 19.1055 3.63183 18.5681C3.02368 17.3495 3.17331 16.2117 3.93644 15.1001C4.36717 15.3373 4.7466 15.5871 5.05442 15.9408C5.55463 16.5129 5.82504 17.2214 5.83252 17.9436C6.25363 17.1805 6.7378 16.4478 7.27862 15.7509C6.72284 15.3079 6.35944 14.7401 6.15637 14.0914C5.83786 12.772 6.23974 11.6951 7.2316 10.7766C7.59927 11.101 7.9135 11.4264 8.13474 11.8378C8.61678 12.7321 8.63709 13.7723 8.19994 14.6571C8.91498 13.8731 10.4605 12.5831 10.3985 12.6041C10.0469 11.9753 9.91646 11.2448 9.98379 10.5583C10.2072 9.21897 11.0013 8.37716 12.2785 7.90587C12.4902 8.34462 12.6516 8.76343 12.6954 9.22737C12.7702 10.0345 12.5329 10.8165 12.0487 11.4295C13.0331 10.8008 14.0816 10.2539 15.1804 9.79522C14.6235 8.08746 15.672 6.20336 17.4452 5.646C18.0084 6.88457 17.7316 8.23651 16.8883 9.17173C17.0519 9.11925 17.2186 9.07097 17.3843 9.02269C18.4531 8.70465 19.5486 8.46428 20.6527 8.30054C20.6602 7.55319 20.9434 6.86253 21.4308 6.29363C22.1544 5.44972 23.2232 5.01097 24.3123 5.10229C24.3358 6.38915 23.6347 7.50491 22.5947 8.09481C23.8559 8.00979 25.1203 8.02448 26.3773 8.13994C26.4841 7.66026 26.6894 7.21416 26.9993 6.82999C27.8533 5.76881 28.9756 5.47701 30.3287 5.73312L30.1096 6.45842C29.821 7.41464 29.0685 8.08221 28.1568 8.36981C29.216 8.54615 30.2613 8.79491 31.2853 9.11505C31.7855 8.08431 32.757 7.3884 33.9252 7.20786C34.6285 7.09765 35.3425 7.2425 35.9485 7.58993L35.9667 7.61512C35.6856 8.21866 35.2666 8.74243 34.698 9.13605C34.1347 9.47718 33.5458 9.67346 32.9494 9.70705C33.688 10.0041 34.4115 10.34 35.1148 10.7147C35.366 10.8564 36.0105 11.2343 36.2649 11.3823C36.4979 11.5418 37.1424 11.968 37.37 12.1233C37.7035 12.3868 38.0893 12.6702 38.4196 12.9368C39.0619 13.492 39.7674 14.1418 40.3285 14.7726C40.7913 15.289 41.2316 15.8495 41.6346 16.4279C41.6923 16.41 41.7511 16.3985 41.8109 16.389C42.6019 16.2683 43.3425 16.7984 43.4644 17.5751C43.5296 17.9866 43.4088 18.3844 43.1598 18.6836L43.4997 19.8172L45.7666 27.4165L45.7698 27.4134Z" fill="var(--fill-0, #D3A337)"/>
</g>
<defs>
<clipPath id="clip0_103_13">
<rect width="146" height="31" fill="white"/>
</clipPath>
</defs>
</svg>
