<svg preserveAspectRatio="none" width="100%" height="100%" overflow="visible" style="display: block;" viewBox="0 0 40 40" fill="none" xmlns="http://www.w3.org/2000/svg">
<g id="writing 1">
<path id="Vector" d="M39.1919 18.4834C39.0748 18.3662 38.9158 18.3004 38.75 18.3004H31.0523C28.1311 18.3004 27.7405 18.0102 25.8634 16.6159C25.4634 16.3188 25.0101 15.982 24.4568 15.5905C23.1717 14.6812 21.7835 14.0089 20.3208 13.5841L22.9062 9.10594C23.3494 8.33836 23.4666 7.44234 23.2364 6.58297C23.0061 5.7236 22.4566 5.00625 21.689 4.56313L20.7534 4.02297C19.1652 3.1061 17.1274 3.65227 16.2106 5.24024L10.9613 14.3323C10.3037 14.6406 9.66203 15.0041 9.0514 15.4155L5.82547 17.5898C4.59344 18.4202 3.7507 19.4446 3.17351 20.8137L0.81664 26.4037C0.53 27.0837 0.567812 27.9137 0.920547 28.6811C1.23656 29.3686 1.775 29.9337 2.40781 30.26V35.7963C2.40781 36.0196 2.52695 36.2259 2.72031 36.3376C2.81703 36.3934 2.92492 36.4213 3.03281 36.4213C3.1407 36.4213 3.24859 36.3934 3.34531 36.3376L8.95844 33.0969C9.05344 33.042 9.13234 32.9631 9.18719 32.8681L9.86594 31.6924C10.0593 32.9305 11.1327 33.8809 12.4241 33.8809C13.2094 33.8809 13.9141 33.5297 14.3893 32.976C14.4321 33.0257 14.477 33.074 14.5237 33.1209C15.0139 33.611 15.6636 33.8809 16.3531 33.8809C17.1565 33.8809 17.9102 33.4953 18.3951 32.8762C19.7512 33.6598 21.28 34.1804 23.3754 34.1804H23.3944L38.75 34.1689C39.0951 34.1689 39.375 33.8891 39.375 33.5439V18.9254C39.375 18.7597 39.3091 18.6006 39.1919 18.4834ZM17.2932 5.86524C17.8655 4.87414 19.1373 4.53328 20.1285 5.10547L21.0641 5.64563C21.5425 5.92188 21.8852 6.36961 22.0291 6.90649C22.1729 7.44336 22.1 8.0025 21.8238 8.48094L13.913 22.1828C13.8746 22.163 13.8363 22.1432 13.7979 22.1234C12.3855 21.3934 10.9252 20.6398 9.07515 20.0995L17.2932 5.86524ZM1.96852 26.8894L4.32539 21.2992C4.80398 20.1641 5.50266 19.3148 6.52414 18.6263L9.72945 16.4659L7.71312 19.9584C7.26586 20.0069 6.82875 20.148 6.42625 20.3804C5.66734 20.8185 5.12516 21.5234 4.89961 22.365C4.69851 23.1155 4.77695 23.8759 5.07 24.5362L2.57102 28.8647C2.36047 28.6737 2.18211 28.4327 2.05633 28.1591C1.84977 27.7097 1.81773 27.2469 1.96852 26.8894ZM3.65781 30.3974L7.39594 32.5556L3.65781 34.7137V30.3974ZM8.41711 31.7019L3.88656 29.0862L5.87336 25.645C6.24398 25.9795 6.69586 26.2343 7.20984 26.3727C8.5643 26.7548 9.71929 27.2045 10.7323 27.6918L8.41711 31.7019ZM12.4241 32.6309C11.6855 32.6309 11.0847 32.03 11.0847 31.2914V29.5814L11.842 28.2697C12.5466 28.6656 13.1788 29.0773 13.7637 29.4913V31.1827C13.7637 31.2009 13.7648 31.2189 13.7664 31.2367C13.7648 31.2548 13.7637 31.273 13.7637 31.2915C13.7637 32.03 13.1628 32.6309 12.4241 32.6309ZM16.3531 32.6309C15.9975 32.6309 15.6617 32.491 15.4077 32.237C15.1536 31.9829 15.0137 31.6471 15.0137 31.2914C15.0137 31.2732 15.0125 31.2552 15.0109 31.2374C15.0125 31.2194 15.0137 31.2012 15.0137 31.1827V30.4224C15.2281 30.5885 15.4382 30.7534 15.6452 30.916C16.218 31.3658 16.7708 31.7995 17.3364 32.1962C17.0862 32.4664 16.7301 32.6309 16.3531 32.6309ZM23.3925 32.9304C23.3867 32.9304 23.3815 32.9304 23.3758 32.9304C20.2352 32.9304 18.5496 31.6071 16.4173 29.9327C14.3098 28.2778 11.9209 26.402 7.54539 25.1685C7.54281 25.1678 7.54015 25.167 7.53758 25.1663C7.02117 25.028 6.58687 24.6921 6.31461 24.2205C6.04242 23.749 5.96867 23.2049 6.10703 22.6885C6.24609 22.1694 6.5814 21.7341 7.05117 21.4629C7.51984 21.1923 8.06312 21.1194 8.58109 21.257C10.3834 21.7656 11.8274 22.512 13.2238 23.2337C15.2969 24.3052 17.4405 25.4131 20.6444 25.6589C20.9885 25.6858 21.2891 25.4277 21.3154 25.0835C21.3418 24.7394 21.0842 24.439 20.74 24.4126C18.3813 24.2317 16.6694 23.5552 15.0292 22.7491L19.6752 14.7021C21.1133 15.0807 22.4771 15.721 23.7348 16.6109C24.2762 16.994 24.7234 17.3262 25.118 17.6192C26.9607 18.9881 27.6179 19.4747 30.3287 19.5417V32.9198L23.3925 32.9304ZM38.125 32.9189H31.5787V19.5505H38.125V32.9189Z" fill="#919191"/>
</g>
</svg>
