<svg preserveAspectRatio="none" width="100%" height="100%" overflow="visible" style="display: block;" viewBox="0 0 40 40" fill="none" xmlns="http://www.w3.org/2000/svg">
<g id="optimization (1) 1">
<path id="Vector" d="M9.32735 21.2966H5.74641C5.26594 21.2966 4.875 21.6875 4.875 22.1681V26.5041C4.875 26.9846 5.26586 27.3756 5.74641 27.3756H9.32735C9.80782 27.3756 10.1988 26.9846 10.1988 26.5041V22.1681C10.1988 21.6876 9.80782 21.2966 9.32735 21.2966ZM8.94758 26.1244H6.12625V22.5479H8.94758V26.1244ZM15.7496 18.5284H12.1687C11.6882 18.5284 11.2973 18.9194 11.2973 19.3998V26.5041C11.2973 26.9846 11.6882 27.3756 12.1687 27.3756H15.7496C16.2301 27.3756 16.621 26.9846 16.621 26.5041V19.3998C16.621 18.9194 16.2301 18.5284 15.7496 18.5284ZM15.3698 26.1244H12.5485V19.7797H15.3698V26.1244ZM8.72688 18.2632C10.2945 18.2632 11.8674 17.6349 13.2272 16.4519L13.9541 17.1802C14.3234 17.5494 14.8734 17.6589 15.3556 17.4593C15.8377 17.2595 16.1494 16.793 16.1494 16.2706V11.8083C16.1494 11.0995 15.5727 10.5227 14.8638 10.5227H10.4015C9.87907 10.5227 9.4125 10.8343 9.21282 11.3166C9.01313 11.7987 9.12266 12.3488 9.49188 12.718L10.1317 13.3578C8.24539 14.7429 6.70203 14.659 5.18711 13.117C4.59274 12.5125 3.98516 12.5462 3.61469 12.7791C3.15078 13.071 2.98039 13.7007 3.20024 14.3102C3.90227 16.2593 5.49438 17.6848 7.45906 18.1235C7.87836 18.2172 8.30242 18.2633 8.72696 18.2633L8.72688 18.2632ZM4.5007 14.1959C6.57914 16.1568 8.92422 16.054 11.4751 13.8886C11.6084 13.7755 11.6882 13.6118 11.6953 13.4372C11.7024 13.2626 11.6363 13.0929 11.5127 12.9693L10.3766 11.8332C10.3666 11.8232 10.3599 11.8166 10.3687 11.7954C10.3776 11.774 10.387 11.774 10.4014 11.774H14.8638C14.8814 11.774 14.8981 11.7906 14.8981 11.8083V16.2706C14.8981 16.285 14.8981 16.2945 14.8766 16.3034C14.8555 16.312 14.8488 16.3056 14.8392 16.2959L13.6854 15.1399C13.5681 15.0224 13.4088 14.9563 13.2427 14.9563H13.2426C13.0766 14.9563 12.9174 15.0222 12.8001 15.1396C11.2972 16.6435 9.44946 17.2859 7.73149 16.9023C6.29258 16.581 5.1057 15.5801 4.50055 14.1959L4.5007 14.1959ZM38.0787 9.85852L36.5986 9.5211C36.4618 9.09828 36.2909 8.68594 36.0879 8.28891L36.8971 7.00094C37.3368 6.3007 37.3033 5.55906 36.8092 5.06508L35.6182 3.87625C35.1236 3.38172 34.3816 3.34836 33.6823 3.78914L32.3963 4.5982C31.9978 4.395 31.5851 4.22406 31.1627 4.08734L30.8254 2.60609C30.6428 1.79852 30.095 1.29687 29.3958 1.29687H27.7127C27.0121 1.29687 26.4635 1.79852 26.2811 2.60523L25.9436 4.08734C25.5208 4.22414 25.1086 4.395 24.7115 4.59805L23.4257 3.79023C22.7266 3.34719 21.9841 3.38016 21.488 3.87633L20.2988 5.06555C19.8026 5.56164 19.7696 6.30414 20.2113 7.00117L20.8725 8.05352H2.99367C1.69375 8.05352 0.63625 9.11203 0.63625 10.4131V28.5704C0.63625 29.8715 1.69375 30.93 2.99367 30.93H12.5602C12.3806 31.9381 11.9813 32.8978 11.3674 33.7934H9.56657C7.28438 33.7934 5.33844 35.2909 4.94024 37.3507C4.86985 37.7041 4.79703 38.0697 5.06055 38.3909C5.34039 38.732 5.79149 38.732 6.15453 38.732C13.4638 38.7254 20.877 38.7254 28.1889 38.732C28.5514 38.732 29.0025 38.732 29.2822 38.3897C29.5459 38.067 29.4684 37.6852 29.4013 37.3549C29.0049 35.2913 27.0589 33.7934 24.7741 33.7934H22.9757C22.369 32.9055 21.9638 31.9305 21.7831 30.93H31.3469C32.648 30.93 33.7065 29.8715 33.7065 28.5704V20.4884C34.4007 20.9113 35.1313 20.8739 35.6183 20.3871L36.8097 19.1957C37.3017 18.7036 37.3356 17.9625 36.8965 17.2592L36.0857 15.9734C36.2883 15.5763 36.4595 15.1638 36.5974 14.7408L38.0805 14.4045C38.8863 14.2182 39.3868 13.6698 39.3868 12.9733V11.2902C39.3868 10.5897 38.8852 10.041 38.0786 9.85867L38.0787 9.85852ZM28.1486 37.4806C20.8624 37.4742 13.4754 37.4742 6.19196 37.4806C6.52383 36.0842 7.95227 35.0446 9.56657 35.0446H24.774C26.388 35.0446 27.8149 36.0813 28.1485 37.4806H28.1486ZM21.5056 33.7934H12.837C13.3408 32.8894 13.6769 31.9208 13.8282 30.93H20.5141C20.6645 31.9196 21.0008 32.8881 21.5057 33.7934H21.5056ZM31.3469 29.6788H2.99367C2.38375 29.6788 1.8875 29.1815 1.8875 28.5703V10.4131C1.8875 9.80195 2.38375 9.30469 2.99367 9.30469H20.5848C20.5593 9.37664 20.5334 9.44844 20.5099 9.52102L19.0287 9.85828C18.2211 10.0409 17.7195 10.5895 17.7195 11.2901V12.9731C17.7195 13.6697 18.22 14.218 19.0283 14.4048L20.5088 14.7405C20.6225 15.0898 20.7595 15.4302 20.9166 15.7602H18.5931C18.1113 15.7602 17.7194 16.1511 17.7194 16.6316V26.5041C17.7194 26.9845 18.1113 27.3755 18.5931 27.3755H22.1718C22.6523 27.3755 23.0432 26.9845 23.0432 26.5041V20.6652C23.1704 20.6166 23.298 20.5532 23.4241 20.4739L24.1438 20.0207V26.504C24.1438 26.9845 24.5347 27.3754 25.0152 27.3754H28.5961C29.0766 27.3754 29.4675 26.9845 29.4675 26.504V22.9608C30.132 22.9273 30.6489 22.4343 30.8249 21.6559L31.1624 20.1759C31.5867 20.0388 31.9996 19.8678 32.3964 19.6651L32.455 19.702V28.5702C32.455 29.1813 31.9577 29.6786 31.3466 29.6786L31.3469 29.6788ZM20.2986 19.1952L21.4882 20.387C21.5813 20.4802 21.6834 20.5568 21.7922 20.6171V26.1244H18.9708V17.0114H20.368L20.212 17.2592C19.7711 17.9591 19.8045 18.701 20.2986 19.1952ZM25.3952 19.9738C25.5757 20.0466 25.7583 20.1145 25.9436 20.1749L26.281 21.655C26.4636 22.4626 27.0123 22.9642 27.7128 22.9642H28.2166V26.1244H25.3952V19.9738ZM38.1357 12.9731C38.1357 13.0793 37.9154 13.1583 37.8013 13.1846L35.9654 13.6009C35.7408 13.6519 35.5624 13.822 35.5009 14.0439C35.342 14.6169 35.1122 15.1706 34.8177 15.6894C34.7039 15.8899 34.7097 16.1368 34.8327 16.3318L35.8366 17.9239C35.8998 18.0251 35.9995 18.2361 35.9249 18.3106L34.7334 19.502C34.6589 19.5765 34.4478 19.4769 34.3485 19.4149L32.754 18.4117C32.5587 18.2888 32.3116 18.2835 32.1111 18.3977C31.595 18.6917 31.0424 18.9205 30.4685 19.0775C30.2459 19.1384 30.075 19.3169 30.0237 19.5419L29.6049 21.3788C29.5788 21.4944 29.5015 21.7128 29.3957 21.7128H27.7127C27.6052 21.7128 27.5274 21.4944 27.501 21.3777L27.0825 19.5418C27.0314 19.3175 26.8613 19.1394 26.6396 19.078C26.0656 18.9188 25.513 18.6891 24.9973 18.3954C24.9012 18.3406 24.7943 18.3134 24.6877 18.3134C24.5717 18.3134 24.4559 18.3456 24.3542 18.4095L22.7582 19.4145C22.6414 19.4878 22.4424 19.5716 22.3732 19.5024L21.1836 18.3106C21.1082 18.2352 21.2075 18.026 21.2707 17.9256L22.2739 16.3311C22.3968 16.1358 22.4022 15.8888 22.288 15.6883C21.995 15.174 21.7654 14.6207 21.6054 14.0437C21.5438 13.8218 21.3655 13.6516 21.1409 13.6007L19.3075 13.1849C19.1909 13.158 18.9706 13.0791 18.9706 12.9729V11.2898C18.9706 11.1824 19.1891 11.1046 19.3056 11.0783L21.1436 10.6598C21.3687 10.6085 21.5472 10.4375 21.6081 10.2149C21.7644 9.64391 21.9931 9.09195 22.288 8.57445C22.4021 8.37406 22.3968 8.12719 22.2741 7.93195L21.2697 6.3332C21.2067 6.23391 21.1077 6.02594 21.1836 5.95008L22.3728 4.76078C22.4486 4.68477 22.6566 4.78391 22.7581 4.8482L24.3548 5.85141C24.55 5.97406 24.7968 5.97938 24.9973 5.86524C25.5149 5.57039 26.0668 5.34164 26.6377 5.18539C26.8604 5.12445 27.0313 4.94594 27.0826 4.72086L27.5013 2.88187C27.5274 2.76633 27.6052 2.54789 27.7127 2.54789H29.3958C29.5016 2.54789 29.5788 2.76633 29.6052 2.88281L30.0237 4.72086C30.0749 4.94594 30.2459 5.12445 30.4685 5.18539C31.0383 5.34133 31.5913 5.57024 32.112 5.86578C32.3124 5.97945 32.559 5.97391 32.7539 5.85117L34.3488 4.84773C34.4488 4.78469 34.6579 4.68547 34.7338 4.76125L35.9249 5.95008C35.9945 6.01977 35.9107 6.21867 35.8374 6.33531L34.8342 7.93203C34.7116 8.12727 34.7063 8.37414 34.8204 8.57453C35.1152 9.09211 35.344 9.64399 35.5002 10.215C35.5611 10.4376 35.7396 10.6085 35.9646 10.6598L37.8016 11.0786C37.9171 11.1047 38.1356 11.1825 38.1356 11.29V12.973L38.1357 12.9731ZM28.5544 6.92844C25.6853 6.92844 23.3513 9.2625 23.3513 12.1316C23.3513 15.0006 25.6853 17.3324 28.5544 17.3324C31.4234 17.3324 33.7553 14.9993 33.7553 12.1316C33.7553 9.26383 31.4222 6.92844 28.5544 6.92844ZM28.5544 16.0813C26.3752 16.0813 24.6025 14.3095 24.6025 12.1316C24.6025 9.95367 26.3753 8.17969 28.5544 8.17969C30.7334 8.17969 32.5041 9.9525 32.5041 12.1316C32.5041 14.3106 30.7323 16.0813 28.5544 16.0813Z" fill="#919191"/>
</g>
</svg>
