<svg preserveAspectRatio="none" width="100%" height="100%" overflow="visible" style="display: block;" viewBox="0 0 34.0274 40.0001" fill="none" xmlns="http://www.w3.org/2000/svg">
<g id="Group">
<path id="Vector" d="M33.7809 25.3531L25.7927 16.3103C25.6075 16.1006 25.3407 15.9803 25.0609 15.9803C24.781 15.9803 24.5143 16.1005 24.3289 16.3103L22.4935 18.3881V10.9958H24.9585C25.3476 10.9958 25.6888 10.7754 25.8488 10.4206C26.0088 10.0659 25.9481 9.66429 25.6904 9.37265L17.7021 0.330078C17.517 0.120312 17.2502 0 16.9704 0C16.9704 0 16.9704 0 16.9703 0C16.6904 0 16.4237 0.120234 16.2384 0.33L14.4046 2.40586C14.1908 2.64789 14.2138 3.01742 14.4557 3.23125C14.6977 3.445 15.0673 3.42211 15.2811 3.18008L16.9704 1.26789L24.5307 9.8264H21.9087C21.5857 9.8264 21.3239 10.0882 21.3239 10.4111V19.712L16.3409 25.353C16.0832 25.6447 16.0225 26.0462 16.1825 26.401C16.3424 26.7558 16.6836 26.9762 17.0728 26.9762H19.5378V38.8305H14.4897V15.3017H16.9547C17.3439 15.3017 17.6851 15.0813 17.845 14.7266C18.005 14.3718 17.9443 13.9702 17.6867 13.6786L11.8468 7.06773L13.4843 5.21406C13.6982 4.97203 13.6752 4.6025 13.4332 4.38867C13.1911 4.17484 12.8216 4.19773 12.6078 4.43976L11.0666 6.18445L9.69848 4.6357C9.51324 4.42601 9.24644 4.3057 8.96668 4.3057C8.68676 4.3057 8.42004 4.42601 8.2348 4.6357H8.23472L0.24652 13.6786C-0.0111366 13.9702 -0.0718398 14.3718 0.0881603 14.7266C0.248082 15.0813 0.589254 15.3017 0.978395 15.3017H3.4434V39.4153C3.4434 39.7383 3.70519 40.0001 4.02816 40.0001H29.9993C30.3222 40.0001 30.584 39.7383 30.584 39.4153V34.5578C30.584 34.2348 30.3222 33.9731 29.9993 33.9731C29.6763 33.9731 29.4146 34.2349 29.4146 34.5578V38.8305H20.7072V26.3915C20.7072 26.0685 20.4454 25.8067 20.1225 25.8067H17.5004L25.0608 17.2482L32.6211 25.8067H29.9992C29.6762 25.8067 29.4145 26.0685 29.4145 26.3915V31.8594C29.4145 32.1824 29.6762 32.4442 29.9992 32.4442C30.3221 32.4442 30.5839 32.1824 30.5839 31.8594V26.9762H33.0489C33.4381 26.9762 33.7793 26.7558 33.9392 26.4011C34.0993 26.0462 34.0386 25.6447 33.7809 25.3531ZM13.3202 14.7169V38.8305H4.61293V14.7169C4.61293 14.394 4.35121 14.1322 4.02824 14.1322H1.40621L8.9666 5.57367L16.5269 14.1322H13.9049C13.582 14.1323 13.3202 14.3941 13.3202 14.7169Z" fill="#919191"/>
</g>
</svg>
