<svg preserveAspectRatio="none" width="100%" height="100%" overflow="visible" style="display: block;" viewBox="0 0 39.9015 45" fill="none" xmlns="http://www.w3.org/2000/svg">
<g id="Outline">
<path id="Vector" d="M15.2163 35.6836C15.2163 35.1969 15.088 34.7211 14.8476 34.3164C14.6072 33.9117 14.2656 33.5963 13.8659 33.41C13.4662 33.2237 13.0263 33.175 12.602 33.27C12.1777 33.3649 11.7879 33.5993 11.482 33.9435C11.176 34.2876 10.9677 34.7261 10.8833 35.2035C10.7989 35.6809 10.8422 36.1757 11.0078 36.6254C11.1733 37.075 11.4537 37.4594 11.8134 37.7298C12.1732 38.0002 12.5961 38.1445 13.0288 38.1445C13.6087 38.1437 14.1646 37.8842 14.5747 37.4228C14.9848 36.9615 15.2155 36.336 15.2163 35.6836ZM11.7788 35.6836C11.7788 35.4055 11.8521 35.1336 11.9894 34.9023C12.1268 34.6711 12.322 34.4908 12.5504 34.3844C12.7788 34.278 13.0301 34.2501 13.2726 34.3044C13.5151 34.3586 13.7378 34.4926 13.9126 34.6892C14.0874 34.8859 14.2065 35.1365 14.2547 35.4093C14.303 35.682 14.2782 35.9648 14.1836 36.2218C14.089 36.4787 13.9288 36.6983 13.7232 36.8529C13.5177 37.0074 13.276 37.0899 13.0288 37.0899C12.6972 37.0899 12.3793 36.9417 12.1449 36.678C11.9104 36.4143 11.7788 36.0566 11.7788 35.6836Z" fill="#919191"/>
<path id="Vector_2" d="M0.03875 43.1638C0.03875 43.3494 0.046875 43.5379 0.063125 43.7231C0.0925353 44.0734 0.23736 44.3987 0.469131 44.635C0.700901 44.8713 1.00285 45.0015 1.31563 45H9.74188C9.765 45 9.78656 44.9944 9.80906 44.993C9.83675 44.9969 9.8646 44.9993 9.8925 45H16.165C16.4276 45.0011 16.6811 44.8916 16.8756 44.6931C17.0701 44.4946 17.1916 44.2215 17.2163 43.9274C17.2284 43.7868 17.235 43.6433 17.235 43.4985C17.2364 42.5844 17.0021 41.6895 16.5603 40.9223C16.1185 40.1552 15.4884 39.5487 14.7463 39.1765C14.0042 38.8043 13.182 38.6824 12.3795 38.8255C11.577 38.9686 10.8287 39.3707 10.2253 39.9829C9.60801 38.8251 8.6702 37.9271 7.55569 37.4265C6.44117 36.926 5.21148 36.8504 4.05516 37.2116C2.89884 37.5727 1.87972 38.3505 1.15407 39.4258C0.428415 40.5011 0.0362884 41.8144 0.0378125 43.1645L0.03875 43.1638ZM13.0288 39.8211C13.8954 39.8222 14.7263 40.2099 15.3391 40.8993C15.9519 41.5888 16.2966 42.5235 16.2975 43.4985C16.2975 43.6089 16.2922 43.7182 16.2831 43.8258C16.28 43.8586 16.2662 43.8889 16.2444 43.911C16.2226 43.933 16.1943 43.9453 16.165 43.9453H10.9569C10.9745 43.8731 10.9871 43.7994 10.9944 43.7249C11.0106 43.5389 11.0188 43.3505 11.0188 43.1649C11.0175 42.4175 10.895 41.6767 10.6572 40.9788C10.9609 40.6134 11.3282 40.3221 11.7361 40.1229C12.1441 39.9238 12.584 39.8211 13.0288 39.8211ZM5.52875 38.0422C6.73574 38.0437 7.89292 38.5838 8.74639 39.544C9.59986 40.5041 10.0799 41.8059 10.0813 43.1638C10.0813 43.315 10.0747 43.469 10.0613 43.6208C10.0535 43.7099 10.0165 43.7925 9.95739 43.8524C9.8983 43.9123 9.82142 43.9452 9.74188 43.9446H1.31563C1.23598 43.9452 1.15902 43.9122 1.09991 43.8522C1.0408 43.7921 1.00382 43.7093 0.99625 43.6201C0.982813 43.4683 0.97625 43.3143 0.97625 43.1631C0.977739 41.8054 1.45787 40.5037 2.31133 39.5437C3.16478 38.5837 4.32187 38.0437 5.52875 38.0422Z" fill="#919191"/>
<path id="Vector_3" d="M8.34125 33.0469C8.34125 32.4211 8.1763 31.8094 7.86726 31.289C7.55822 30.7687 7.11896 30.3632 6.60505 30.1237C6.09113 29.8842 5.52563 29.8215 4.98006 29.9436C4.43449 30.0657 3.93335 30.3671 3.54001 30.8096C3.14668 31.2521 2.87881 31.8158 2.77029 32.4296C2.66177 33.0434 2.71747 33.6796 2.93034 34.2577C3.14321 34.8359 3.5037 35.33 3.96621 35.6777C4.42872 36.0254 4.97249 36.2109 5.52875 36.2109C6.27442 36.21 6.98931 35.8764 7.51657 35.2832C8.04384 34.69 8.34042 33.8858 8.34125 33.0469ZM3.65375 33.0469C3.65375 32.6297 3.76372 32.2219 3.96974 31.875C4.17577 31.5281 4.46861 31.2577 4.81122 31.0981C5.15383 30.9384 5.53083 30.8967 5.89454 30.978C6.25826 31.0594 6.59235 31.2603 6.85458 31.5553C7.1168 31.8503 7.29538 32.2262 7.36772 32.6354C7.44007 33.0445 7.40294 33.4687 7.26102 33.8541C7.11911 34.2395 6.87879 34.569 6.57044 34.8008C6.2621 35.0325 5.89959 35.1563 5.52875 35.1563C5.03162 35.1557 4.555 34.9333 4.20347 34.5378C3.85195 34.1424 3.65425 33.6062 3.65375 33.0469Z" fill="#919191"/>
<path id="Vector_4" d="M23.9663 1.08736e-05C19.9557 -0.00496683 16.0924 1.69925 13.1538 4.76966C12.9056 4.7556 12.6559 4.7461 12.4038 4.7461C5.56406 4.7461 0 10.0241 0 16.5111C0.010833 18.6835 0.626564 20.7973 1.76062 22.5556C1.49357 24.1654 1.50864 25.8185 1.805 27.4219C2.02375 29.0173 3.96125 29.5664 4.8675 28.3265C5.32577 27.7466 5.85329 27.2411 6.435 26.8242C7.84659 27.5529 9.35561 28.0138 10.9009 28.1883C12.8517 31.338 15.6504 33.6992 18.8845 34.9237C22.1186 36.1483 25.6168 36.1714 28.8634 34.9896L32.8759 42.808C33.3688 43.7386 34.1675 44.4134 35.0993 44.6865C36.031 44.9596 37.0209 44.809 37.8547 44.2673C38.6885 43.7256 39.2992 42.8364 39.5547 41.792C39.8101 40.7476 39.6898 39.632 39.2197 38.6867L35.1259 30.7118C37.385 28.2195 38.9331 25.0267 39.5727 21.5406C40.2123 18.0545 39.9145 14.4331 38.7172 11.1382C37.5199 7.84332 35.4775 5.02425 32.8503 3.04051C30.2232 1.05677 27.1303 -0.00172152 23.9663 1.08736e-05ZM6.61 25.7506C6.53924 25.7119 6.46101 25.6939 6.38245 25.698C6.30389 25.7022 6.22751 25.7285 6.16031 25.7745C5.41483 26.2752 4.74165 26.9011 4.16406 27.6304C3.63563 28.17 2.97656 28.1106 2.72656 27.2306C2.44264 25.7158 2.43509 24.1518 2.70438 22.6336C2.72706 22.546 2.73239 22.4538 2.71997 22.3636C2.70755 22.2734 2.67769 22.1873 2.6325 22.1115C1.54512 20.4994 0.950509 18.5348 0.9375 16.5111C0.9375 10.6052 6.08125 5.80079 12.4038 5.80079C18.7263 5.80079 23.87 10.6052 23.87 16.5111C23.87 22.417 18.7263 27.2218 12.4038 27.2218C10.3985 27.2298 8.41776 26.7267 6.61 25.7506ZM19.1906 6.67091C20.9885 5.70383 22.9848 5.29945 24.9697 5.50027C26.9545 5.70109 28.8546 6.4997 30.4703 7.81216C32.086 9.12462 33.3576 10.9025 34.1515 12.9589C34.9453 15.0153 35.2322 17.2743 34.9818 19.4985C34.7315 21.7227 33.9532 23.8299 32.7287 25.5988C31.5043 27.3677 29.8789 28.7328 28.0234 29.5508C26.1679 30.3687 24.1508 30.6093 22.1841 30.2472C20.2174 29.8851 18.3738 28.9336 16.8469 27.4929C21.4975 25.7945 24.8075 21.5156 24.8075 16.5111C24.8075 12.3989 22.57 8.77466 19.1906 6.67091ZM38.4094 39.214C38.7709 39.9184 38.8688 40.7555 38.6817 41.5411C38.4946 42.3267 38.0377 42.9965 37.4116 43.4032C36.7854 43.8099 36.0414 43.9201 35.343 43.7096C34.6447 43.499 34.0493 42.9851 33.6878 42.2807L32.5381 40.0398L37.2594 36.9731L38.4094 39.214ZM36.7906 36.0598L32.0694 39.1265L29.76 34.6289C31.4648 33.8769 33.0417 32.8001 34.4216 31.4459L36.7906 36.0598ZM23.9663 34.8047C21.6778 34.8051 19.4197 34.2162 17.3648 33.0832C15.3099 31.9501 13.5128 30.3029 12.1113 28.2677C13.3434 28.302 14.5743 28.1555 15.7728 27.8318C17.3956 29.5346 19.4054 30.6995 21.5799 31.1976C23.7544 31.6956 26.009 31.5075 28.0944 30.6541C30.1799 29.8006 32.0149 28.315 33.3967 26.3615C34.7784 24.408 35.6531 22.0627 35.9241 19.5848C36.195 17.107 35.8516 14.5931 34.9318 12.3211C34.012 10.0491 32.5517 8.1075 30.7123 6.71091C28.8729 5.31432 26.726 4.51716 24.509 4.40754C22.292 4.29792 20.0912 4.88012 18.15 6.08978C16.9676 5.50395 15.7186 5.10592 14.4388 4.90712C16.2957 3.18757 18.4929 1.99566 20.8452 1.43195C23.1975 0.868244 25.6358 0.949268 27.9544 1.66819C30.2731 2.38711 32.404 3.72284 34.1674 5.5627C35.9309 7.40255 37.2751 9.69256 38.0868 12.2395C38.8984 14.7865 39.1537 17.5157 38.831 20.197C38.5083 22.8782 37.6171 25.4328 36.2326 27.6453C34.8481 29.8577 33.011 31.6631 30.8761 32.9091C28.7412 34.1552 26.3713 34.8053 23.9663 34.8047Z" fill="#919191"/>
<path id="Vector_5" d="M7.2475 13.7109H17.56C17.6843 13.7109 17.8035 13.6554 17.8915 13.5565C17.9794 13.4576 18.0287 13.3235 18.0287 13.1836C18.0287 13.0437 17.9794 12.9096 17.8915 12.8107C17.8035 12.7118 17.6843 12.6563 17.56 12.6563H7.2475C7.12318 12.6563 7.00395 12.7118 6.91604 12.8107C6.82814 12.9096 6.77875 13.0437 6.77875 13.1836C6.77875 13.3235 6.82814 13.4576 6.91604 13.5565C7.00395 13.6554 7.12318 13.7109 7.2475 13.7109Z" fill="#919191"/>
<path id="Vector_6" d="M7.2475 17.2266H17.56C17.6843 17.2266 17.8035 17.171 17.8915 17.0721C17.9794 16.9732 18.0287 16.8391 18.0287 16.6992C18.0287 16.5594 17.9794 16.4252 17.8915 16.3263C17.8035 16.2274 17.6843 16.1719 17.56 16.1719H7.2475C7.12318 16.1719 7.00395 16.2274 6.91604 16.3263C6.82814 16.4252 6.77875 16.5594 6.77875 16.6992C6.77875 16.8391 6.82814 16.9732 6.91604 17.0721C7.00395 17.171 7.12318 17.2266 7.2475 17.2266Z" fill="#919191"/>
<path id="Vector_7" d="M18.0287 20.2149C18.0287 20.075 17.9794 19.9409 17.8915 19.842C17.8035 19.7431 17.6843 19.6875 17.56 19.6875H7.2475C7.12318 19.6875 7.00395 19.7431 6.91604 19.842C6.82814 19.9409 6.77875 20.075 6.77875 20.2149C6.77875 20.3547 6.82814 20.4888 6.91604 20.5877C7.00395 20.6866 7.12318 20.7422 7.2475 20.7422H17.56C17.6843 20.7422 17.8035 20.6866 17.8915 20.5877C17.9794 20.4888 18.0287 20.3547 18.0287 20.2149Z" fill="#919191"/>
</g>
</svg>
