<svg preserveAspectRatio="none" width="100%" height="100%" overflow="visible" style="display: block;" viewBox="0 0 31.8359 31.9572" fill="none" xmlns="http://www.w3.org/2000/svg">
<g id="Icon">
<path id="Vector" d="M14.4257 8.98795V19.9732C14.424 21.5619 13.7946 23.085 12.6755 24.2083C11.5564 25.3317 10.0391 25.9635 8.45642 25.9652C8.19256 25.9652 7.93951 25.8599 7.75293 25.6727C7.56637 25.4854 7.46155 25.2314 7.46155 24.9665C7.46155 24.7017 7.56637 24.4476 7.75293 24.2604C7.93951 24.0731 8.19256 23.9679 8.45642 23.9679C9.51185 23.9679 10.5241 23.547 11.2703 22.7978C12.0167 22.0487 12.4359 21.0327 12.4359 19.9732V18.9746L4.97436 18.9746C4.44665 18.9746 3.94055 18.7641 3.5674 18.3895C3.19425 18.0149 2.98462 17.5069 2.98462 16.9772V8.98795C2.98462 8.45823 3.19425 7.9502 3.5674 7.57563C3.94055 7.20105 4.44665 6.99062 4.97436 6.99062L12.4359 6.99062C12.9636 6.99062 13.4697 7.20105 13.8429 7.57563C14.216 7.9502 14.4257 8.45823 14.4257 8.98795ZM26.8616 6.99062L19.4 6.99062C18.8723 6.99062 18.3662 7.20105 17.9931 7.57563C17.6199 7.9502 17.4103 8.45823 17.4103 8.98795V16.9772C17.4103 17.5069 17.6199 18.0149 17.9931 18.3895C18.3662 18.7641 18.8723 18.9746 19.4 18.9746L26.8616 18.9746V19.9732C26.8616 21.0327 26.4423 22.0487 25.696 22.7978C24.9497 23.547 23.9375 23.9679 22.8821 23.9679C22.6182 23.9679 22.3651 24.0731 22.1786 24.2604C21.9921 24.4476 21.8872 24.7017 21.8872 24.9665C21.8872 25.2314 21.9921 25.4854 22.1786 25.6727C22.3651 25.8599 22.6182 25.9652 22.8821 25.9652C24.4647 25.9635 25.9821 25.3317 27.1011 24.2083C28.2203 23.085 28.8496 21.5619 28.8513 19.9732V8.98795C28.8513 8.45823 28.6417 7.9502 28.2685 7.57563C27.8953 7.20105 27.3892 6.99062 26.8616 6.99062Z" fill="var(--fill-0, #E8C700)"/>
</g>
</svg>
