<svg preserveAspectRatio="none" width="100%" height="100%" overflow="visible" style="display: block;" viewBox="0 0 45 19" fill="none" xmlns="http://www.w3.org/2000/svg">
<g id="svg10662724464" clip-path="url(#clip0_103_150)">
<path id="Vector" d="M44.751 9.656C44.751 6.462 43.209 3.942 40.263 3.942C37.305 3.942 35.515 6.462 35.515 9.631C35.515 13.386 37.628 15.283 40.661 15.283C42.14 15.283 43.259 14.946 44.104 14.472V11.977C43.259 12.401 42.289 12.663 41.059 12.663C39.853 12.663 38.784 12.238 38.647 10.766H44.726C44.726 10.604 44.751 9.956 44.751 9.656ZM38.61 8.471C38.61 7.061 39.468 6.475 40.251 6.475C41.009 6.475 41.817 7.061 41.817 8.471H38.61ZM30.716 3.942C29.498 3.942 28.715 4.516 28.28 4.915L28.118 4.142H25.384V18.689L28.491 18.027L28.504 14.497C28.951 14.821 29.61 15.283 30.704 15.283C32.929 15.283 34.955 13.486 34.955 9.531C34.943 5.913 32.892 3.942 30.716 3.942ZM29.971 12.538C29.237 12.538 28.802 12.276 28.504 11.952L28.491 7.323C28.815 6.961 29.262 6.712 29.971 6.712C31.102 6.712 31.885 7.984 31.885 9.619C31.885 11.29 31.114 12.538 29.971 12.538ZM21.107 3.206L24.228 2.533V0L21.107 0.661V3.206ZM21.107 4.154H24.228V15.071H21.107V4.154ZM17.764 5.078L17.565 4.154H14.879V15.071H17.987V7.673C18.721 6.712 19.964 6.886 20.349 7.024V4.154C19.951 4.005 18.497 3.73 17.764 5.078ZM11.548 1.447L8.515 2.096L8.503 12.089C8.503 13.935 9.882 15.295 11.722 15.295C12.742 15.295 13.487 15.108 13.898 14.884V12.351C13.5 12.513 11.536 13.087 11.536 11.241V6.812H13.898V4.155H11.536L11.548 1.447ZM3.145 7.323C3.145 6.837 3.543 6.649 4.201 6.649C5.146 6.649 6.34 6.937 7.284 7.448V4.516C6.253 4.105 5.233 3.942 4.202 3.942C1.678 3.942 0 5.265 0 7.473C0 10.916 4.723 10.367 4.723 11.852C4.723 12.426 4.227 12.613 3.53 12.613C2.499 12.613 1.181 12.189 0.137 11.615V14.584C1.293 15.083 2.461 15.295 3.53 15.295C6.116 15.295 7.894 14.01 7.894 11.777C7.881 8.059 3.145 8.72 3.145 7.323Z" fill="var(--fill-0, #B8B8B8)"/>
</g>
<defs>
<clipPath id="clip0_103_150">
<rect width="45" height="19" fill="white"/>
</clipPath>
</defs>
</svg>
