<svg preserveAspectRatio="none" width="100%" height="100%" overflow="visible" style="display: block;" viewBox="0 0 18 18" fill="none" xmlns="http://www.w3.org/2000/svg">
<g id="3137045818">
<g id="eGc0G6qIW">
</g>
<path id="bYbNwMKxL" d="M6.75 10.6875C6.75 11.619 7.75725 12.375 9 12.375C10.2427 12.375 11.25 11.619 11.25 10.6875C11.25 8.4375 6.87525 9.28125 6.87525 7.3125C6.87525 6.381 7.75725 5.625 9 5.625C9.9315 5.625 10.6613 6.04725 10.9688 6.6555" stroke="var(--stroke-0, black)" stroke-width="1.5" stroke-linecap="round" stroke-linejoin="round"/>
<path id="pHHpTk7W6" d="M3.375 15.1875C3.0645 15.1875 2.8125 14.9355 2.8125 14.625V3.375C2.8125 3.0645 3.0645 2.8125 3.375 2.8125H14.625C14.9355 2.8125 15.1875 3.0645 15.1875 3.375V14.625C15.1875 14.9355 14.9355 15.1875 14.625 15.1875H3.375Z" stroke="var(--stroke-0, black)" stroke-width="1.5" stroke-linecap="round" stroke-linejoin="round"/>
</g>
</svg>
