<svg preserveAspectRatio="none" width="100%" height="100%" overflow="visible" style="display: block;" viewBox="0 0 24 24" fill="none" xmlns="http://www.w3.org/2000/svg">
<g id="2403020249">
<path id="SaDp9MGsz" d="M23.25 19.5C23.25 20.328 22.578 21 21.75 21C20.922 21 20.25 20.328 20.25 19.5C20.25 18 21.75 15.75 21.75 15.75C21.75 15.75 23.25 18 23.25 19.5Z" fill="var(--fill-0, #E8C700)"/>
<path id="DB121Ek63" d="M10.924 1.5L1.939 10.484C1.658 10.765 1.5 11.147 1.5 11.545C1.5 11.943 1.658 12.324 1.939 12.606L9.894 20.56C10.175 20.842 10.557 21 10.955 21C11.353 21 11.734 20.842 12.016 20.56L19.5 13.076L21.75 12.326L10.924 1.5ZM12.95 12.201C12.414 12.737 11.608 12.898 10.907 12.607C10.206 12.317 9.749 11.633 9.749 10.875C9.749 10.117 10.206 9.433 10.907 9.143C11.608 8.852 12.414 9.013 12.95 9.549C13.682 10.282 13.682 11.468 12.95 12.201Z" fill="var(--fill-0, #E8C700)"/>
<path id="wwOB0Pak0" d="M23.25 19.5C23.25 20.328 22.578 21 21.75 21C20.922 21 20.25 20.328 20.25 19.5C20.25 18 21.75 15.75 21.75 15.75C21.75 15.75 23.25 18 23.25 19.5Z" stroke="var(--stroke-0, #E8C700)" stroke-width="1.5" stroke-linecap="round" stroke-linejoin="round"/>
<path id="iP9tyMUPX" d="M19.5 13.076L12.016 20.56C11.734 20.842 11.353 21 10.955 21C10.557 21 10.175 20.842 9.894 20.56L1.939 12.606C1.658 12.324 1.5 11.943 1.5 11.545C1.5 11.147 1.658 10.765 1.939 10.484L10.924 1.5L21.75 12.326L19.5 13.076Z" stroke="var(--stroke-0, #E8C700)" stroke-width="1.5" stroke-linecap="round" stroke-linejoin="round"/>
<path id="UBwNZANvE" d="M9.75 10.875C9.75 9.839 10.589 9 11.625 9C12.661 9 13.5 9.839 13.5 10.875C13.5 11.911 12.661 12.75 11.625 12.75C10.589 12.75 9.75 11.911 9.75 10.875Z" stroke="var(--stroke-0, #E8C700)" stroke-width="1.5" stroke-linecap="round" stroke-linejoin="round"/>
<path id="cxO_uUgKe" d="M10.299 9.549L3.749 3" stroke="var(--stroke-0, #E8C700)" stroke-width="1.5" stroke-linecap="round" stroke-linejoin="round"/>
</g>
</svg>
