<svg preserveAspectRatio="none" width="100%" height="100%" overflow="visible" style="display: block;" viewBox="0 0 146.787 29.1042" fill="none" xmlns="http://www.w3.org/2000/svg">
<g id="Group">
<path id="Vector" d="M0 3.63802C0 2.67316 0.383408 1.74781 1.06588 1.06555C1.74835 0.38329 2.67398 0 3.63913 0H10.9174C11.8826 0 12.8082 0.38329 13.4907 1.06555C14.1731 1.74781 14.5565 2.67316 14.5565 3.63802V10.9141C14.5565 11.8774 14.9387 12.8014 15.6193 13.4834C16.2999 14.1655 17.2233 14.5498 18.1869 14.5521H25.4739C26.4391 14.5521 27.3647 14.9354 28.0472 15.6176C28.7297 16.2999 29.1131 17.2252 29.1131 18.1901V25.4661C29.1131 26.431 28.7297 27.3564 28.0472 28.0386C27.3647 28.7209 26.4391 29.1042 25.4739 29.1042H18.1957C17.2305 29.1042 16.3049 28.7209 15.6224 28.0386C14.9399 27.3564 14.5565 26.431 14.5565 25.4661V18.1595C14.5485 17.2 14.1615 16.2825 13.4799 15.6068C12.7983 14.9311 11.8773 14.552 10.9174 14.5521H3.63913C2.67398 14.5521 1.74835 14.1688 1.06588 13.4865C0.383408 12.8043 0 11.8789 0 10.9141L0 3.63802Z" fill="var(--fill-0, #0A0D12)"/>
<path id="Vector_2" fill-rule="evenodd" clip-rule="evenodd" d="M68.5271 21.3625C67.5081 21.3625 66.5983 21.1151 65.7977 20.6203C64.9971 20.1255 64.3639 19.4489 63.8981 18.5903C63.4323 17.7317 63.1994 16.7567 63.1994 15.6653C63.1994 14.5739 63.4323 13.6062 63.8981 12.7622C64.3639 11.9036 64.9971 11.2342 65.7977 10.754C66.5983 10.2592 67.5081 10.0118 68.5271 10.0118C69.3423 10.0118 70.0555 10.1646 70.6669 10.4702C71.2783 10.7758 71.7732 11.2051 72.1517 11.7581V5.38427H74.9465V21.1005H72.4574L72.1517 19.5507C71.8023 20.0309 71.3365 20.453 70.7542 20.8168C70.1865 21.1806 69.4442 21.3625 68.5271 21.3625ZM69.1166 18.9177C70.0191 18.9177 70.7542 18.6194 71.3219 18.0228C71.9042 17.4116 72.1953 16.633 72.1953 15.6871C72.1953 14.7413 71.9042 13.97 71.3219 13.3734C70.7542 12.7622 70.0191 12.4566 69.1166 12.4566C68.2287 12.4566 67.4936 12.7549 66.9113 13.3515C66.3291 13.9482 66.0379 14.7194 66.0379 15.6653C66.0379 16.6112 66.3291 17.3897 66.9113 18.0009C67.4936 18.6121 68.2287 18.9177 69.1166 18.9177Z" fill="var(--fill-0, #0A0D12)"/>
<path id="Vector_3" d="M39.8412 20.3802C40.9475 21.035 42.2722 21.3625 43.8152 21.3625C45.6493 21.3625 47.1486 20.9186 48.3131 20.0309C49.4922 19.1433 50.2273 17.9136 50.5185 16.342H47.4398C47.2505 17.1278 46.8429 17.7463 46.217 18.1974C45.6056 18.6339 44.7905 18.8522 43.7715 18.8522C42.3595 18.8522 41.2532 18.3793 40.4526 17.4334C39.652 16.473 39.2517 15.156 39.2517 13.4825C39.2517 11.809 39.652 10.4921 40.4526 9.53161C41.2532 8.57118 42.3595 8.09096 43.7715 8.09096C44.7905 8.09096 45.6056 8.33107 46.217 8.81129C46.8429 9.27695 47.2505 9.92452 47.4398 10.754H50.5185C50.2273 9.1096 49.4922 7.8363 48.3131 6.93407C47.1486 6.01729 45.6493 5.5589 43.8152 5.5589C42.2722 5.5589 40.9475 5.89359 39.8412 6.56299C38.735 7.23239 37.8834 8.16372 37.2866 9.35699C36.6898 10.5503 36.3913 11.9254 36.3913 13.4825C36.3913 15.0396 36.6898 16.4148 37.2866 17.608C37.8834 18.7867 38.735 19.7108 39.8412 20.3802Z" fill="var(--fill-0, #0A0D12)"/>
<path id="Vector_4" fill-rule="evenodd" clip-rule="evenodd" d="M53.9757 20.6421C54.8199 21.1223 55.7661 21.3625 56.8142 21.3625C57.8477 21.3625 58.7866 21.1223 59.6309 20.6421C60.4751 20.1619 61.1375 19.4998 61.6178 18.6558C62.1128 17.7972 62.3602 16.8077 62.3602 15.6871C62.3602 14.5666 62.1128 13.5844 61.6178 12.7403C61.155 11.8994 60.4669 11.2041 59.6309 10.7322C58.8011 10.2519 57.8695 10.0118 56.836 10.0118C55.7879 10.0118 54.8418 10.2519 53.9975 10.7322C53.1678 11.2124 52.5054 11.8818 52.0105 12.7403C51.5156 13.5844 51.2681 14.5666 51.2681 15.6871C51.2681 16.8077 51.5083 17.7972 51.9887 18.6558C52.4648 19.481 53.1502 20.1661 53.9757 20.6421ZM58.7138 18.1319C58.1752 18.6703 57.542 18.9395 56.8142 18.9395C56.0863 18.9395 55.4531 18.6703 54.9145 18.1319C54.3905 17.5789 54.1285 16.764 54.1285 15.6871C54.1285 14.6103 54.3905 13.8027 54.9145 13.2642C55.4531 12.7112 56.0936 12.4348 56.836 12.4348C57.5493 12.4348 58.1752 12.7112 58.7138 13.2642C59.2524 13.8027 59.5217 14.6103 59.5217 15.6871C59.5217 16.764 59.2524 17.5789 58.7138 18.1319ZM78.8404 20.664C79.6847 21.1296 80.6527 21.3625 81.7444 21.3625C82.6178 21.3625 83.3966 21.2024 84.0808 20.8822C84.7795 20.5621 85.3617 20.1255 85.8275 19.5726C86.3079 19.005 86.65 18.3793 86.8538 17.6953H84.0152C83.826 18.1028 83.5349 18.4375 83.1419 18.6994C82.7634 18.9468 82.2903 19.0705 81.7226 19.0705C80.9657 19.0705 80.3179 18.8304 79.7793 18.3502C79.2553 17.87 78.9641 17.2078 78.9059 16.3638H87.1376C87.1522 16.1746 87.1595 15.9927 87.1595 15.8181C87.174 15.6435 87.1813 15.4761 87.1813 15.3161C87.1813 14.3265 86.9484 13.4316 86.4826 12.6312C86.0313 11.8163 85.3981 11.176 84.583 10.7103C83.7678 10.2447 82.8289 10.0118 81.7663 10.0118C80.6309 10.0118 79.641 10.2592 78.7967 10.754C77.967 11.2342 77.312 11.9109 76.8316 12.784C76.3658 13.6571 76.1329 14.6539 76.1329 15.7745C76.1329 16.8804 76.3731 17.8554 76.8534 18.6994C77.3338 19.5434 77.9961 20.1983 78.8404 20.664ZM79.954 12.8713C80.478 12.4784 81.0821 12.282 81.7663 12.282C82.4795 12.282 83.0764 12.493 83.5567 12.915C84.0371 13.337 84.2991 13.9045 84.3428 14.6176H78.9496C79.0951 13.8318 79.4299 13.2497 79.954 12.8713Z" fill="var(--fill-0, #0A0D12)"/>
<path id="Vector_5" d="M93.5279 21.3625C92.4216 21.3625 91.4464 21.1223 90.6021 20.6421C89.7578 20.1619 89.0882 19.4925 88.5933 18.6339C88.1122 17.7754 87.8727 16.7931 87.8727 15.6871C87.8727 14.5812 88.1122 13.5989 88.5933 12.7403C89.0882 11.8818 89.7578 11.2124 90.6021 10.7322C91.4464 10.2519 92.4216 10.0118 93.5279 10.0118C94.9108 10.0118 96.0753 10.3756 97.0215 11.1032C97.9677 11.8163 98.5718 12.8058 98.8338 14.0719H95.8861C95.7405 13.548 95.4494 13.1405 95.0127 12.8495C94.5906 12.5439 94.0884 12.3911 93.5061 12.3911C92.7346 12.3911 92.0796 12.6821 91.541 13.2642C91.0024 13.8463 90.7331 14.6539 90.7331 15.6871C90.7331 16.7203 91.0024 17.528 91.541 18.1101C92.0796 18.6922 92.7346 18.9832 93.5061 18.9832C94.0884 18.9832 94.5906 18.8377 95.0127 18.5466C95.4494 18.2556 95.7405 17.8409 95.8861 17.3024H98.8338C98.5718 18.5248 97.9677 19.5071 97.0215 20.2492C96.0753 20.9914 94.9108 21.3625 93.5279 21.3625ZM102.755 12.3038L102.493 10.2738H100.004V21.1005H102.799V16.1674C102.799 15.3379 102.93 14.6903 103.192 14.2247C103.469 13.759 103.847 13.4316 104.327 13.2424C104.808 13.0532 105.354 12.9586 105.965 12.9586H106.751V10.0118C105.834 10.0118 105.033 10.2228 104.349 10.6448C103.68 11.0523 103.148 11.6053 102.755 12.3038Z" fill="var(--fill-0, #0A0D12)"/>
<path id="Vector_6" fill-rule="evenodd" clip-rule="evenodd" d="M111.085 21.3625C110.153 21.3625 109.389 21.2169 108.792 20.9259C108.195 20.6203 107.751 20.2201 107.46 19.7253C107.169 19.2306 107.023 18.6849 107.023 18.0882C107.023 17.0841 107.416 16.2692 108.202 15.6435C108.988 15.0177 110.168 14.7049 111.74 14.7049H114.491V14.4429C114.491 13.7008 114.28 13.1551 113.858 12.8058C113.435 12.4566 112.911 12.282 112.286 12.282C111.718 12.282 111.223 12.4202 110.801 12.6967C110.379 12.9586 110.117 13.3515 110.015 13.8754H107.285C107.358 13.0896 107.62 12.4057 108.071 11.8236C108.537 11.2415 109.134 10.7976 109.862 10.4921C110.59 10.1719 111.405 10.0118 112.307 10.0118C113.85 10.0118 115.066 10.3975 115.954 11.1687C116.842 11.94 117.286 13.0314 117.286 14.4429V21.1005H114.906L114.644 19.3543C114.323 19.9364 113.872 20.4166 113.29 20.7949C112.722 21.1733 111.987 21.3625 111.085 21.3625ZM111.718 19.1796C112.518 19.1796 113.137 18.9177 113.574 18.3938C114.025 17.87 114.309 17.2224 114.425 16.4511H112.045C111.303 16.4511 110.772 16.5894 110.451 16.8659C110.131 17.1278 109.971 17.4552 109.971 17.8481C109.971 18.2701 110.131 18.5976 110.451 18.8304C110.772 19.0632 111.194 19.1796 111.718 19.1796Z" fill="var(--fill-0, #0A0D12)"/>
<path id="Vector_7" d="M120.128 6.21374C119.473 6.76672 119.145 7.69805 119.145 9.00774V10.2738H117.661V12.6094H119.145V21.1005H121.94V12.6094H126.25V17.3243C126.25 18.7358 126.592 19.7181 127.276 20.2711C127.96 20.824 128.87 21.1005 130.005 21.1005H131.905V18.7213H130.551C129.998 18.7213 129.605 18.6267 129.372 18.4375C129.154 18.2338 129.044 17.87 129.044 17.3461V12.6094H131.97V10.2738H129.044V7.37063H126.577L126.25 10.2738H121.94V9.00774C121.94 8.55662 122.042 8.23648 122.246 8.0473C122.45 7.85813 122.792 7.76354 123.272 7.76354H124.036V5.38427H122.835C121.7 5.38427 120.797 5.66076 120.128 6.21374ZM132.82 21.93V24.593H146.787V21.93H132.82Z" fill="var(--fill-0, #0A0D12)"/>
</g>
</svg>
