<svg preserveAspectRatio="none" width="100%" height="100%" overflow="visible" style="display: block;" viewBox="0 0 128.78 29.1461" fill="none" xmlns="http://www.w3.org/2000/svg">
<g id="Group">
<path id="Vector" opacity="0.7" d="M19.5257 0.709108C21.577 2.76025 19.0265 8.63532 13.8308 13.8306C8.63513 19.0258 2.76028 21.5753 0.708961 19.5242C-1.34163 17.4731 1.2074 11.5987 6.40382 6.40348C11.5995 1.20823 17.4744 -1.34203 19.5257 0.709108Z" fill="var(--fill-0, #0A0D12)"/>
<path id="Vector_2" opacity="0.5" d="M23.9832 5.16551C26.0345 7.21664 23.4848 13.091 18.2891 18.2862C13.0934 23.4815 7.21779 26.0317 5.16648 23.9806C3.11589 21.9295 5.66491 16.0551 10.8613 10.8591C16.057 5.6639 21.9319 3.11437 23.9832 5.16551Z" fill="var(--fill-0, #0A0D12)"/>
<path id="Vector_3" opacity="0.3" d="M28.4393 9.6219C30.4906 11.673 27.9408 17.5474 22.7451 22.7426C17.5494 27.9379 11.6739 30.4881 9.62326 28.437C7.57195 26.3859 10.1217 20.5115 15.3174 15.3163C20.5131 10.121 26.3887 7.57077 28.4393 9.6219Z" fill="var(--fill-0, #0A0D12)"/>
<path id="Vector_4" d="M36.4354 21.1316V7.75366H46.0369V10.2529H39.5834V13.518H45.2695V16.0172H39.5834V21.1316H36.4354ZM47.009 21.1316V10.5473H50.0193V12.0235C50.6882 10.7644 51.7113 10.2136 52.7935 10.2136C53.2263 10.2136 53.6198 10.3316 53.8362 10.5487V13.0859C53.4419 13.0017 53.0393 12.9621 52.6361 12.9678C50.8259 12.9678 50.0193 13.9909 50.0193 15.6638V21.1316H47.009ZM64.4302 17.6494C63.8793 20.0889 61.9118 21.4464 59.3147 21.4464C56.0282 21.4464 54.0024 19.3216 54.0024 15.8394C54.0024 12.2399 56.0486 10.2128 59.1966 10.2128C62.3643 10.2128 64.3515 12.3186 64.3515 15.7804V16.4493H57.0717C57.2291 18.1412 58.0161 19.0462 59.3147 19.0462C60.2984 19.0462 60.9674 18.6134 61.2822 17.6494H64.4302ZM59.1966 12.613C58.0744 12.613 57.3668 13.3416 57.1307 14.7188H61.2428C61.0067 13.3416 60.2984 12.613 59.1966 12.613ZM69.5837 21.4464C66.8678 21.4464 65.156 19.3216 65.156 15.8394C65.156 12.2399 66.9078 10.2128 69.5837 10.2128C70.7044 10.2128 71.6095 10.685 72.2587 11.59V10.548H75.269V25.4794H72.2595V20.0102C71.6095 20.9356 70.6862 21.4464 69.5837 21.4464ZM70.2322 19.0069C71.5708 19.0069 72.2595 17.9051 72.2595 15.8394C72.2595 13.7934 71.5512 12.6523 70.2329 12.6523C68.9344 12.6523 68.2457 13.7745 68.2457 15.8394C68.2457 17.8855 68.9533 19.0069 70.2322 19.0069ZM83.4095 16.6264V10.5473H86.4198V21.1316H83.4095V19.7151C82.7208 20.8955 81.678 21.4464 80.3992 21.4464C78.3923 21.4464 76.9167 20.2266 76.9167 17.5904V10.5473H79.927V16.9812C79.927 18.338 80.4385 19.0069 81.501 19.0069C82.6618 19.0069 83.4095 17.9838 83.4095 16.6264ZM98.0463 17.6494C97.4954 20.0889 95.5279 21.4464 92.9308 21.4464C89.645 21.4464 87.6185 19.3216 87.6185 15.8394C87.6185 12.2399 89.6647 10.2128 92.8127 10.2128C95.9804 10.2128 97.9676 12.3186 97.9676 15.7804V16.4493H90.6878C90.8452 18.1412 91.6322 19.0462 92.9308 19.0462C93.9145 19.0462 94.5835 18.6134 94.8983 17.6494H98.0463ZM92.8127 12.613C91.6912 12.613 90.9829 13.3416 90.7468 14.7188H94.8589C94.6228 13.3416 93.9145 12.613 92.8127 12.613ZM99.2246 21.1316V10.5473H102.235V11.9441C102.924 10.7637 104.006 10.2128 105.304 10.2128C107.331 10.2128 108.846 11.4523 108.846 14.0688V21.1316H105.835V14.6787C105.835 13.3409 105.304 12.6531 104.202 12.6531C103.002 12.6531 102.235 13.695 102.235 15.0525V21.1316H99.2246ZM119.938 14.3639H116.928C116.731 13.1252 116.023 12.6523 115.157 12.6523C113.819 12.6523 113.131 13.7745 113.131 15.8394C113.131 17.8855 113.859 19.0069 115.236 19.0069C116.141 19.0069 116.77 18.4954 116.987 17.5117H119.997C119.545 20.1676 117.636 21.4464 115.177 21.4464C112.009 21.4464 110.042 19.302 110.042 15.8394C110.042 12.2399 112.048 10.2128 115.157 10.2128C117.617 10.2128 119.564 11.59 119.938 14.3639ZM121.13 9.48492V6.96672H124.14V9.48492H121.13ZM121.13 21.1316V10.5473H124.14V21.1316H121.13ZM125.77 9.48492V6.96672H128.78V9.48492H125.77ZM125.77 21.1316V10.5473H128.78V21.1316H125.77Z" fill="var(--fill-0, #0A0D12)"/>
</g>
</svg>
