<svg preserveAspectRatio="none" width="100%" height="100%" overflow="visible" style="display: block;" viewBox="0 0 106.486 29.1146" fill="none" xmlns="http://www.w3.org/2000/svg">
<g id="Group">
<path id="Vector" d="M14.5568 0L17.6763 7.02535L24.8499 4.26383L22.0877 11.4377L29.1136 14.5573L22.0885 17.6769L24.8499 24.8508L17.6763 22.0892L14.5568 29.1146L11.4373 22.0892L4.26368 24.8508L7.02583 17.6769L0 14.5573L7.02583 11.4377L4.26368 4.26383L11.4373 7.02535L14.5568 0ZM48.9588 9.34869C49.2849 9.67478 49.6925 9.83782 50.1816 9.83782C50.6707 9.83782 51.0717 9.67478 51.384 9.34869C51.697 9.00878 51.8527 8.60118 51.8527 8.12588C51.8527 7.63676 51.697 7.22915 51.384 6.90307C51.071 6.57698 50.6707 6.41394 50.1816 6.41394C49.6925 6.41394 49.2849 6.57698 48.9588 6.90307C48.6459 7.22915 48.4901 7.63676 48.4901 8.12588C48.4901 8.60118 48.6466 9.00878 48.9588 9.34869ZM38.1359 14.0281L43.6383 21.1081H47.6123L41.5873 13.5674L47.4085 6.71965H43.4549L38.1359 13.21V6.71965H34.9363V21.1081H38.1359V14.0281ZM56.7998 14.2603C56.5283 14.5864 56.3922 15.0348 56.3922 15.6054V21.1081H53.2742V15.5443C53.2742 14.6344 53.4707 13.8389 53.8652 13.1598C54.2613 12.4779 54.8401 11.9202 55.5363 11.5498C56.2569 11.1691 57.0851 10.9791 58.0226 10.9791C58.9739 10.9791 59.8022 11.1691 60.5089 11.5498C61.1979 11.9135 61.7702 12.4646 62.1596 13.1394C62.5534 13.8185 62.7506 14.6206 62.7506 15.5443V21.1081H59.6326V15.6054C59.6326 15.0348 59.4899 14.5864 59.2046 14.2603C58.9331 13.9204 58.5386 13.7508 58.0226 13.7508C57.4927 13.7508 57.0851 13.9204 56.7998 14.2603ZM67.4372 20.8635C68.0348 21.1765 68.7277 21.3323 69.5159 21.3323C70.2765 21.3323 70.8952 21.2165 71.3704 20.9858C71.8457 20.7551 72.2737 20.4217 72.6543 19.9872L70.7591 18.0714C70.6279 18.2174 70.4684 18.3353 70.2903 18.4179C70.1019 18.4904 69.9011 18.525 69.6993 18.5198C69.4278 18.5198 69.1898 18.4317 68.986 18.2548C68.7961 18.078 68.7007 17.813 68.7007 17.46V13.8731H71.9411V11.2033H68.7007V7.10687H65.5827V11.2033H63.3817V13.8731H65.5827V17.4396C65.5827 18.241 65.7457 18.9339 66.0718 19.5184C66.3978 20.1029 66.8527 20.5513 67.4372 20.8635ZM77.1677 21.3526C76.0124 21.3518 74.8763 21.0573 73.8662 20.4967C73.4143 20.2302 73.0026 19.9008 72.6434 19.5184L74.4164 17.725C74.7425 18.078 75.1297 18.3567 75.5781 18.5605C76.0428 18.754 76.542 18.851 77.0454 18.8459C77.4122 18.8459 77.691 18.7913 77.881 18.6828C78.0848 18.5736 78.1867 18.4244 78.1867 18.2345C78.1867 17.9899 78.0644 17.8065 77.8198 17.6842C77.5891 17.5481 77.29 17.4331 76.9231 17.3377L75.7615 16.9913C75.3539 16.869 74.9667 16.6994 74.5999 16.4818C74.233 16.2641 73.9346 15.965 73.7032 15.585C73.4724 15.1913 73.3567 14.6949 73.3567 14.0973C73.3567 13.4589 73.5198 12.9087 73.8458 12.4465C74.1719 11.9712 74.6341 11.5971 75.2316 11.3256C75.8299 11.0541 76.5294 10.918 77.3307 10.918C78.1736 10.918 78.948 11.0672 79.654 11.3663C80.3745 11.6517 80.9583 12.0796 81.4066 12.6503L79.6336 14.4437C79.3214 14.0769 78.9684 13.8185 78.5739 13.6693C78.2177 13.5246 77.8374 13.4485 77.453 13.4451C77.1 13.4451 76.8351 13.4997 76.6582 13.6082C76.4821 13.7028 76.3933 13.8462 76.3933 14.0361C76.3933 14.2399 76.509 14.403 76.7397 14.5253C76.9712 14.6475 77.2696 14.756 77.6364 14.8513C78.0032 14.9467 78.3904 15.0624 78.798 15.1978C79.2056 15.3332 79.5928 15.5173 79.9597 15.7481C80.3265 15.9788 80.6256 16.2918 80.8564 16.6856C81.0878 17.0662 81.2028 17.5685 81.2028 18.1937C81.2028 19.1581 80.836 19.926 80.1023 20.4967C79.3825 21.0673 78.4043 21.3526 77.1677 21.3526ZM84.4635 20.782C85.1703 21.1488 85.9789 21.3323 86.8887 21.3323C87.7992 21.3323 88.6006 21.1488 89.2935 20.782C89.9659 20.4211 90.529 19.8862 90.9238 19.2331C91.3183 18.5671 91.5148 17.7992 91.5148 16.9301V11.2033H88.3968V16.9098C88.3968 17.4265 88.2614 17.8341 87.9892 18.1326C87.7177 18.4179 87.3509 18.5605 86.8887 18.5605C86.5626 18.5605 86.2846 18.4929 86.0531 18.3567C85.8242 18.2229 85.6398 18.0244 85.5233 17.7861C85.4148 17.5415 85.3602 17.2497 85.3602 16.9098V11.2033H82.2422V16.9505C82.2422 17.8065 82.4394 18.5671 82.8332 19.2331C83.2282 19.886 83.7913 20.4209 84.4635 20.782Z" fill="var(--fill-0, #0A0D12)"/>
<path id="Vector_2" fill-rule="evenodd" clip-rule="evenodd" d="M96.9784 25.5102C96.0685 25.5102 95.246 25.3472 94.5123 25.0211C93.7924 24.695 93.2217 24.2401 92.8003 23.6556C92.3926 23.085 92.1888 22.4255 92.1888 21.6787C92.1888 21.0811 92.2704 20.592 92.4334 20.2113C92.6103 19.8307 92.8752 19.4573 93.2283 19.0904L95.4498 20.517C95.3334 20.6444 95.2372 20.7887 95.1644 20.945C95.093 21.1124 95.0583 21.293 95.0625 21.4749C95.0625 21.8825 95.2329 22.2086 95.5721 22.4532C95.912 22.6977 96.3873 22.82 96.9987 22.82C97.6509 22.82 98.1539 22.6635 98.5069 22.3513C98.8607 22.0528 99.0368 21.6241 99.0368 21.0673C99.0368 20.7005 98.9488 20.3809 98.7719 20.1094C98.592 19.821 98.3291 19.5937 98.0178 19.4573C97.7055 19.2942 97.3452 19.2127 96.9376 19.2127C96.1631 19.2127 95.4636 19.0358 94.8384 18.6828C94.2346 18.3236 93.7301 17.8192 93.3709 17.2155C93.0179 16.5902 92.841 15.8907 92.841 15.1163C92.841 14.3149 93.0245 13.6082 93.3913 12.9968C93.7622 12.3812 94.2896 11.8748 94.9199 11.5294C95.5721 11.1764 96.2992 10.9995 97.1006 10.9995C97.7885 10.9995 98.4167 11.1298 98.9844 11.3896L100.627 9.77668L102.42 11.5701L100.898 13.0928C101.206 13.6329 101.36 14.2399 101.36 14.9125C101.36 15.66 101.177 16.3187 100.81 16.8894C100.584 17.2564 100.293 17.5799 99.9525 17.8443C100.471 18.1727 100.91 18.6122 101.238 19.1312C101.632 19.7564 101.829 20.4697 101.829 21.2711C101.829 22.1002 101.625 22.8338 101.218 23.4722C100.81 24.1105 100.247 24.6069 99.526 24.9599C98.8061 25.3268 97.9566 25.5102 96.9784 25.5102ZM97.1006 16.6448C97.4136 16.6448 97.6851 16.5837 97.9159 16.4614C98.1474 16.3253 98.3308 16.1419 98.4662 15.9111C98.6023 15.6804 98.67 15.4154 98.67 15.1163C98.67 14.8171 98.6023 14.5522 98.4662 14.3215C98.344 14.0906 98.1512 13.9049 97.9159 13.7916C97.6851 13.6555 97.4136 13.5878 97.1006 13.5878C96.7884 13.5878 96.5169 13.6555 96.2854 13.7916C96.0556 13.9127 95.8648 14.0964 95.7351 14.3215C95.5997 14.5522 95.5313 14.8171 95.5313 15.1163C95.5313 15.4154 95.5997 15.6804 95.7351 15.9111C95.868 16.1389 96.0576 16.3285 96.2854 16.4614C96.53 16.5837 96.8022 16.6448 97.1006 16.6448Z" fill="var(--fill-0, #0A0D12)"/>
<path id="Vector_3" d="M103.592 9.34869C103.918 9.67478 104.326 9.83782 104.815 9.83782C105.304 9.83782 105.705 9.67478 106.017 9.34869C106.326 9.01746 106.494 8.5789 106.486 8.12588C106.486 7.63676 106.329 7.22915 106.017 6.90307C105.705 6.57698 105.304 6.41394 104.815 6.41394C104.326 6.41394 103.918 6.57698 103.592 6.90307C103.28 7.22915 103.123 7.63676 103.123 8.12588C103.123 8.60118 103.28 9.00878 103.592 9.34869ZM48.6124 11.2033V21.1081H51.7304V11.2033H48.6124ZM103.245 11.2033V21.1081H106.363V11.2033H103.245Z" fill="var(--fill-0, #0A0D12)"/>
</g>
</svg>
