<svg preserveAspectRatio="none" width="100%" height="100%" overflow="visible" style="display: block;" viewBox="0 0 128.982 34.975" fill="none" xmlns="http://www.w3.org/2000/svg">
<g id="svg202400883_1949" clip-path="url(#clip0_103_177)">
<path id="Vector" d="M0 17.4875C0 14.5001 0.945865 11.7341 2.55486 9.4724H9.47322V10.7687C8.35399 11.4962 7.43439 12.4919 6.79806 13.6654C6.16172 14.8388 5.82884 16.1527 5.82968 17.4875C5.82968 21.914 9.41857 25.5026 13.8455 25.5026V31.3318C6.19913 31.3318 0 25.1332 0 17.4875ZM25.1361 25.5026C26.8024 23.1625 27.6956 20.3602 27.691 17.4875C27.691 9.84182 21.4918 3.64323 13.8455 3.64323V9.4724C18.2724 9.4724 21.8613 13.061 21.8613 17.4875C21.8621 18.8223 21.5292 20.1362 20.8929 21.3096C20.2566 22.483 19.337 23.4788 18.2177 24.2063V25.5026H25.1361ZM38.4015 8.40857V20.8757H44.5722V24.0453H34.9781V8.40857H38.4015ZM53.335 13.4799H56.5894V24.0453H53.5252L53.3138 22.862C52.6587 23.7291 51.3485 24.32 50.0806 24.32C47.6714 24.32 46.1922 22.7141 46.1922 20.1157V13.4799H49.4466V18.9317C49.4466 20.6644 50.0383 21.4251 51.3704 21.4251C52.7644 21.4251 53.335 20.7067 53.335 18.9739V13.4799ZM62.2864 24.0453H59.032V13.4799H62.0751L62.2864 14.5787C62.8147 13.8392 63.8502 13.1419 65.3718 13.1419C66.9567 13.1419 67.9711 13.8814 68.5839 15.0014C69.1334 13.8814 70.3802 13.1419 71.9018 13.1419C74.6279 13.1419 75.9803 14.7267 75.9803 17.1356V24.0453H72.7259V18.0442C72.7259 16.7129 72.0285 16.079 70.9931 16.079C70.0632 16.079 69.1334 16.5862 69.1334 18.3823V24.0453H65.879V18.0442C65.879 16.7341 65.2027 16.1002 64.1665 16.1002C63.2374 16.1002 62.2864 16.6073 62.2864 18.3823V24.0453ZM79.9132 11.8318C78.8777 11.8318 78.0535 11.0084 78.0535 9.97225C78.0535 8.93611 78.8777 8.13387 79.9132 8.13387C80.9276 8.13387 81.7517 8.93684 81.7517 9.97225C81.7517 11.0077 80.9276 11.8318 79.9132 11.8318ZM78.3071 24.0453V13.4799H81.5615V24.0453H78.3071ZM87.2571 24.0453H84.0027V13.4799H87.0669L87.2783 14.5787C87.9334 13.6701 89.1379 13.1419 90.5115 13.1419C93.0263 13.1419 94.4845 14.7478 94.4845 17.5159V24.0453H91.23V18.2978C91.23 16.9665 90.4904 16.1002 89.3704 16.1002C88.0813 16.1002 87.2571 16.9454 87.2571 18.2555V24.0453ZM100.01 24.32C97.7695 24.32 96.3747 23.0099 96.3747 20.9391C96.3747 18.9951 97.7484 17.7913 100.284 17.6004L103.243 17.368V17.199C103.243 16.1643 102.609 15.6142 101.447 15.6142C100.073 15.6142 99.3333 16.1424 99.3333 17.0933H96.6283C96.6283 14.7055 98.5937 13.1419 101.616 13.1419C104.68 13.1419 106.413 14.8542 106.413 17.8751V24.0453H103.539L103.327 22.6507C102.989 23.6227 101.594 24.32 100.01 24.32ZM101.151 21.9111C102.398 21.9111 103.264 21.299 103.264 20.0939V19.5233L101.616 19.6713C100.2 19.798 99.6926 20.1157 99.6926 20.7912C99.6926 21.5519 100.157 21.9111 101.151 21.9111ZM116.016 13.4799V16.5439H114.981C113.121 16.5439 112.001 17.368 112.001 19.4599V24.0453H108.747V13.5018H111.811L111.98 15.0648C112.424 14.0301 113.354 13.332 114.77 13.332C115.189 13.3327 115.608 13.3823 116.016 13.4799ZM117.126 29.1167V26.3916H118.922C120.021 26.3916 120.486 26.0527 120.909 24.9124L121.099 24.4045L116.851 13.4799H120.338L122.642 20.2636L125.199 13.4799H128.58L123.212 26.3486C122.325 28.5039 121.141 29.4125 119.282 29.4125C118.5 29.4125 117.76 29.3069 117.126 29.1167Z" fill="var(--fill-0, #0A0D12)"/>
</g>
<defs>
<clipPath id="clip0_103_177">
<rect width="128.982" height="34.975" fill="white"/>
</clipPath>
</defs>
</svg>
