<svg preserveAspectRatio="none" width="100%" height="100%" overflow="visible" style="display: block;" viewBox="0 0 136.537 19.3179" fill="none" xmlns="http://www.w3.org/2000/svg">
<g id="Group">
<path id="Vector" d="M0 2.84026H12.6386L0.206928 15.2724L2.21573 17.2813L14.6452 4.84914V17.4875H14.7261L17.4869 14.7274V3.09529L14.3917 0H2.75855L0 2.75792V2.84026ZM34.4345 9.88335H36.8404V12.1188H34.4345V15.3016H31.7634V12.1188H24.7731V10.1675L32.0097 1.58553H34.4345V9.88335ZM28.183 9.88335H31.7634V5.50711L28.183 9.88335ZM43.5503 5.98073C44.4851 5.98073 45.3187 6.16362 46.0509 6.53012C46.7833 6.88443 47.391 7.45251 47.7938 8.15938C48.2237 8.87928 48.4379 9.74418 48.4379 10.7548C48.4379 12.258 47.9643 13.4326 47.0171 14.2785C46.0699 15.1121 44.7372 15.5289 43.0199 15.5289C41.8322 15.5289 40.8347 15.3329 40.0267 14.9416C39.231 14.5503 38.6248 14.0323 38.2081 13.3881C37.8053 12.7484 37.5647 12.0201 37.5071 11.2663H40.2351C40.6395 12.7309 41.5612 13.4639 43.0009 13.4639C43.8847 13.4639 44.5543 13.2176 45.009 12.7251C45.476 12.2325 45.7099 11.5694 45.7099 10.7359C45.7099 9.88991 45.4768 9.23267 45.009 8.76561C44.5419 8.28543 43.8789 8.04571 43.0199 8.04571C41.8832 8.04571 41.0118 8.51933 40.4056 9.46657L37.9428 9.22028L38.8711 1.58553H47.6422V3.82102H41.0876L40.6708 6.96585C41.3528 6.30934 42.3124 5.98073 43.5503 5.98073ZM58.9526 1.58553C60.8601 1.58553 62.584 2.04021 64.1243 2.94956C65.6777 3.84579 66.4544 5.67761 66.4544 8.44355C66.4544 11.2095 65.6777 13.0471 64.1243 13.9565C62.584 14.8527 60.8601 15.3016 58.9526 15.3016H54.3302V1.58553H58.9526ZM58.8579 12.9145C59.7293 12.9021 60.506 12.8009 61.188 12.6114C61.8831 12.4096 62.4704 11.9797 62.9498 11.3232C63.4423 10.6666 63.6886 9.70629 63.6886 8.44355C63.6886 7.18008 63.4423 6.22118 62.9498 5.56394C62.4704 4.90743 61.8831 4.47826 61.188 4.27569C60.506 4.07386 59.7293 3.97258 58.8579 3.97258H57.0013V12.9145H58.8579ZM72.7227 4.88193C73.8215 4.88193 74.7622 5.12821 75.5454 5.62077C76.3411 6.10095 76.9283 6.78879 77.3072 7.68576C77.6985 8.58199 77.8624 9.63707 77.7998 10.8495H70.1464C70.2345 11.7079 70.5063 12.3586 70.9609 12.8009C71.4156 13.2424 72.0087 13.4639 72.7417 13.4639C73.3858 13.4639 73.9031 13.3058 74.2951 12.9903C74.6988 12.6748 74.9705 12.2762 75.1097 11.7968H77.7429C77.5156 12.9845 76.9531 13.9062 76.0569 14.5627C75.1724 15.2068 74.0678 15.5289 72.7417 15.5289C71.6553 15.5289 70.7147 15.3081 69.919 14.8658C69.1413 14.4421 68.508 13.7956 68.1004 13.0092C67.6836 12.2004 67.4752 11.2663 67.4752 10.2054C67.4752 9.15689 67.6894 8.2286 68.1193 7.42053C68.5334 6.62777 69.1728 5.97522 69.9569 5.545C70.7526 5.10271 71.6743 4.88193 72.7227 4.88193ZM75.1665 9.18239C75.0908 8.50038 74.8445 7.95098 74.4277 7.5342C74.0233 7.11741 73.4485 6.90902 72.7038 6.90902C72.0218 6.90902 71.4659 7.09847 71.0367 7.47736C70.6068 7.85626 70.3227 8.4246 70.1842 9.18239H75.1665ZM88.909 5.10926V14.8848C88.909 16.2109 88.4864 17.2784 87.6398 18.0864C86.7938 18.9069 85.5559 19.3179 83.9267 19.3179C82.5125 19.3179 81.3882 19.0016 80.5547 18.3706C79.7211 17.7513 79.2286 16.9177 79.077 15.8699H81.6724C81.9755 16.804 82.7274 17.2718 83.9267 17.2718C84.7603 17.2718 85.3665 17.0634 85.7454 16.6466C86.1242 16.2422 86.3137 15.6426 86.3137 14.8469V13.4829C85.6069 14.5685 84.5395 15.1121 83.1121 15.1121C82.2159 15.1121 81.4261 14.9096 80.7441 14.5059C80.0752 14.0891 79.5506 13.4953 79.1718 12.7251C78.806 11.9549 78.6224 11.0455 78.6224 9.99702C78.6224 8.9485 78.806 8.03915 79.1718 7.26897C79.5506 6.49879 80.0752 5.9115 80.7441 5.50711C81.4261 5.09032 82.2159 4.88193 83.1121 4.88193C84.5519 4.88193 85.6193 5.42477 86.3137 6.51118V5.10926H88.909ZM83.8131 13.0661C84.6597 13.0661 85.3096 12.7819 85.7643 12.2136C86.219 11.6452 86.4463 10.9064 86.4463 9.99702C86.4463 9.08767 86.219 8.34882 85.7643 7.78048C85.3096 7.21214 84.6597 6.92796 83.8131 6.92796C82.9547 6.92796 82.3106 7.21797 81.8808 7.79943C81.464 8.36777 81.2556 9.10006 81.2556 9.99702C81.2556 10.8933 81.464 11.6321 81.8808 12.2136C82.3106 12.7819 82.9547 13.0661 83.8131 13.0661ZM95.9919 4.9956C96.2069 4.9956 96.4218 5.01454 96.636 5.05243V7.64787C96.398 7.60912 96.1573 7.59011 95.9162 7.59103C95.1205 7.59103 94.5267 7.78048 94.1354 8.15938C93.7558 8.50497 93.4969 8.96309 93.3966 9.46657C93.2953 9.95913 93.245 10.534 93.245 11.1905V15.3016H90.6497V5.10926H93.2071V6.85219C93.7631 5.61422 94.6913 4.9956 95.9919 4.9956ZM102.444 4.88193C103.543 4.88193 104.484 5.12821 105.267 5.62077C106.062 6.10095 106.649 6.78879 107.028 7.68576C107.42 8.58199 107.584 9.63707 107.521 10.8495H99.8675C99.9563 11.7079 100.227 12.3586 100.682 12.8009C101.137 13.2424 101.731 13.4639 102.463 13.4639C103.107 13.4639 103.625 13.3058 104.016 12.9903C104.41 12.6909 104.695 12.2722 104.831 11.7968H107.464C107.237 12.9845 106.675 13.9062 105.778 14.5627C104.894 15.2068 103.789 15.5289 102.463 15.5289C101.377 15.5289 100.436 15.3081 99.6401 14.8658C98.8624 14.4421 98.2291 13.7956 97.8215 13.0092C97.4047 12.2004 97.1963 11.2663 97.1963 10.2054C97.1963 9.15689 97.4113 8.2286 97.8404 7.42053C98.2547 6.62787 98.894 5.97536 99.678 5.545C100.474 5.10271 101.396 4.88193 102.444 4.88193ZM104.888 9.18239C104.812 8.50038 104.566 7.95098 104.149 7.5342C103.745 7.11741 103.17 6.90902 102.425 6.90902C101.743 6.90902 101.188 7.09847 100.758 7.47736C100.329 7.85626 100.045 8.4246 99.9053 9.18239H104.888ZM113.554 4.88193C114.653 4.88193 115.593 5.12821 116.377 5.62077C117.172 6.10095 117.759 6.78879 118.138 7.68576C118.53 8.58199 118.694 9.63707 118.631 10.8495H110.977C111.066 11.7079 111.337 12.3586 111.792 12.8009C112.247 13.2424 112.84 13.4639 113.573 13.4639C114.217 13.4639 114.734 13.3058 115.126 12.9903C115.53 12.6748 115.802 12.2762 115.941 11.7968H118.574C118.347 12.9845 117.784 13.9062 116.888 14.5627C116.003 15.2068 114.899 15.5289 113.573 15.5289C112.486 15.5289 111.546 15.3081 110.75 14.8658C109.972 14.4421 109.339 13.7956 108.931 13.0092C108.515 12.2004 108.306 11.2663 108.306 10.2054C108.306 9.15689 108.521 8.2286 108.95 7.42053C109.364 6.62772 110.004 5.97515 110.788 5.545C111.584 5.10271 112.505 4.88193 113.554 4.88193ZM115.998 9.18239C115.922 8.50038 115.676 7.95098 115.259 7.5342C114.854 7.11741 114.28 6.90902 113.535 6.90902C112.853 6.90902 112.297 7.09847 111.868 7.47736C111.438 7.85626 111.154 8.4246 111.015 9.18239H115.998ZM124.3 15.5289C122.758 15.5289 121.565 15.1879 120.719 14.5059C119.873 13.8239 119.393 12.9648 119.279 11.9294H121.875C122.216 13.0151 123.043 13.5586 124.356 13.5586C124.963 13.5586 125.436 13.4515 125.777 13.2366C126.118 13.0092 126.289 12.7192 126.289 12.3651C126.289 11.9862 126.099 11.721 125.72 11.5694C125.354 11.4055 124.723 11.2415 123.826 11.0769C122.992 10.9384 122.279 10.7738 121.685 10.5843C121.107 10.3919 120.582 10.0676 120.151 9.63707C119.722 9.20717 119.507 8.633 119.507 7.91309C119.507 6.89008 119.936 6.13228 120.795 5.63972C121.654 5.13477 122.702 4.88193 123.94 4.88193C125.304 4.88193 126.39 5.17849 127.198 5.77233C128.019 6.36618 128.505 7.16186 128.657 8.15938H126.061C125.91 7.74259 125.663 7.42053 125.322 7.19319C124.994 6.96585 124.514 6.85219 123.883 6.85219C123.34 6.85219 122.904 6.94035 122.576 7.11741C122.26 7.29447 122.102 7.5342 122.102 7.83732C122.102 8.10254 122.228 8.32332 122.481 8.50038C122.746 8.66433 123.037 8.78455 123.352 8.86033C123.668 8.93611 124.211 9.04978 124.981 9.20134C126.345 9.45418 127.337 9.78863 127.956 10.2054C128.574 10.6222 128.884 11.2539 128.884 12.0999C128.884 13.1353 128.486 13.9689 127.691 14.6006C126.895 15.22 125.765 15.5289 124.3 15.5289ZM133.351 7.68576C132.783 7.68576 132.252 7.5597 131.76 7.30686C131.282 7.04393 130.883 6.65803 130.604 6.18912C130.326 5.70894 130.187 5.15371 130.187 4.52198C130.187 3.89024 130.326 3.33428 130.604 2.85483C130.88 2.38846 131.28 2.00801 131.76 1.75604C132.252 1.49081 132.783 1.3582 133.351 1.3582C133.919 1.3582 134.443 1.49081 134.924 1.75604C135.415 2.00744 135.823 2.39564 136.098 2.87378C136.388 3.35396 136.534 3.90336 136.534 4.52198C136.534 5.14132 136.388 5.69655 136.098 6.18912C135.815 6.66149 135.409 7.04791 134.924 7.30686C134.439 7.56064 133.898 7.69079 133.351 7.68576ZM133.351 6.09439C133.78 6.09439 134.121 5.95595 134.374 5.67761C134.639 5.38688 134.772 5.00142 134.772 4.52198C134.772 4.0418 134.639 3.6629 134.374 3.38529C134.121 3.10767 133.78 2.9685 133.351 2.9685C132.934 2.9685 132.593 3.10695 132.328 3.38529C132.075 3.6629 131.949 4.0418 131.949 4.52198C131.949 5.00215 132.075 5.38688 132.328 5.67761C132.593 5.95522 132.934 6.09439 133.351 6.09439Z" fill="var(--fill-0, #0A0D12)"/>
<path id="Vector_2" fill-rule="evenodd" clip-rule="evenodd" d="M133.363 3.11132C133.177 3.11127 132.993 3.14787 132.821 3.21903C132.649 3.29019 132.493 3.39451 132.361 3.52605C132.23 3.65758 132.125 3.81375 132.054 3.98563C131.983 4.15751 131.946 4.34174 131.946 4.52781C131.946 4.71387 131.982 4.89812 132.054 5.07004C132.125 5.24196 132.229 5.39818 132.361 5.52978C132.492 5.66138 132.648 5.76578 132.82 5.83703C132.992 5.90828 133.176 5.94497 133.363 5.94502C133.738 5.94512 134.099 5.7959 134.365 5.53019C134.631 5.26448 134.78 4.90404 134.78 4.52817C134.78 4.1523 134.631 3.79179 134.365 3.52594C134.1 3.26009 133.739 3.11069 133.363 3.11059V3.11132ZM133.363 7.70179C134.205 7.70179 135.012 7.36746 135.607 6.77236C136.203 6.17726 136.537 5.37013 136.537 4.52853C136.537 3.68694 136.203 2.87981 135.607 2.28471C135.012 1.68961 134.205 1.35528 133.363 1.35528C132.522 1.35528 131.714 1.68961 131.119 2.28471C130.524 2.87981 130.19 3.68694 130.19 4.52853C130.19 5.37013 130.524 6.17726 131.119 6.77236C131.714 7.36746 132.522 7.70179 133.363 7.70179Z" fill="var(--fill-0, #0A0D12)"/>
</g>
</svg>
